<?xml version="1.0" encoding="UTF-8"?>
<svg id="Capa_1" xmlns="http://www.w3.org/2000/svg" version="1.1" viewBox="0 0 756.99 411.61">
  <!-- Generator: Adobe Illustrator 29.2.0, SVG Export Plug-In . SVG Version: 2.1.0 Build 108)  -->
  <defs>
    <style>
      .st0 {
        fill: #fff;
      }
    </style>
  </defs>
  <path class="st0" d="M344.64,277.89c-8.91-3.89-15.32-6.74-19.26-8.56-3.94-1.81-5.64-8.86-5.12-21.14l3.5-76.26,52.91,142.02.39-1.02.39,1.02,52.91-142.02,3.5,76.26c.52,12.28-1.19,19.32-5.12,21.14s-10.35,4.67-19.26,8.56l67.83.39c.69,0-2.92-1.77-10.83-5.31-7.91-3.55-12.3-11.93-13.17-25.16l-6.35-95.98c-.52-9.08.93-14.48,4.35-16.21,3.41-1.73,8.75-2.9,16.02-3.5h-46.56l-43.71,117.34-43.71-117.34h-46.56c7.26.61,12.6,1.77,16.02,3.5,3.41,1.73,4.87,7.13,4.35,16.21l-6.35,95.98c-.87,13.23-5.25,21.62-13.17,25.16-7.91,3.55-11.52,5.31-10.83,5.31l67.83-.39h0Z"/>
  <g>
    <path class="st0" d="M355.02,31.55c-25.73,6.8-32.65,21.44-34.33,30.94l23.53-7.31c8.11-11.11,10.79-23.62,10.79-23.62h0Z"/>
    <g>
      <path class="st0" d="M218.51,145.64c-1.48-24.75-.45-40.48-.4-41.14l.39-5.74c-10.27,15.45-10.59,40.23-10.59,40.23l-23.97-21.68c21.79,37.76,24.36,77.1,24.36,77.1-13.93-26.07-35.07-33.87-35.07-33.87,6.79,25.58,41.51,65.38,41.51,65.38-79.44-67.4-166.74-39.39-166.74-39.39,20.75,5.92,41.8,9.43,41.8,9.43-17.24,7.43-20.01,28.32-20.01,28.32,0,0,21.86-15.41,33.18-21.24s43.34,1.69,43.34,1.69c-27.71,17.39-23.67,48.61-23.67,48.61,0,0,27.44-45.48,48.65-37.31,35.46,18.32,66.42,56.41,87.89,88.55-11.27-21.98-20.39-46.27-27.21-72.57-7.15-27.52-11.68-56.58-13.46-86.4v.03Z"/>
      <path class="st0" d="M148.51,110.88c5.65,40.38,38.42,41.39,38.42,41.39-7.35-32.73-38.42-41.39-38.42-41.39Z"/>
      <path class="st0" d="M112.31,168.61c-.77-26.49-31.86-38.85-31.86-38.85,3.55,39.07,31.86,38.85,31.86,38.85h0Z"/>
      <path class="st0" d="M69.91,140.93c-.77-26.49-31.86-38.85-31.86-38.85,3.55,39.07,31.86,38.85,31.86,38.85Z"/>
      <path class="st0" d="M93.33,111.16c3.4-26.29-25.36-43.37-25.36-43.37-2.64,39.14,25.36,43.37,25.36,43.37Z"/>
      <path class="st0" d="M304.07,22.49c-23.08,21.02-23.11,40.06-19.9,51.36l17.37-5.4c9.44-21,2.53-45.97,2.53-45.97h0Z"/>
      <path class="st0" d="M178.63,70.86c22.39-25.18,4.39-63.73,4.39-63.73-30.78,39.24-4.39,63.73-4.39,63.73Z"/>
      <path class="st0" d="M129.44,149.49c12.03,39.19,40.94,32.87,40.94,32.87-6.48-26.92-40.94-32.87-40.94-32.87Z"/>
      <path class="st0" d="M136.9,135.88c5.54-33.24-30.22-56.28-30.22-56.28-5.16,49.61,30.22,56.28,30.22,56.28Z"/>
      <path class="st0" d="M230.63,7.11c-33.57,36.88-9.05,63.23-9.05,63.23,24.17-23.48,9.05-63.23,9.05-63.23Z"/>
      <path class="st0" d="M258.39,64.36c-10.54,8.17-16.85,16.31-20.45,23.86l21.47-6.67c.39-9.88-1.02-17.19-1.02-17.19Z"/>
      <path class="st0" d="M157.35,91.26c.51-33.69-38.28-51.13-38.28-51.13,2.3,49.82,38.28,51.13,38.28,51.13Z"/>
      <path class="st0" d="M56.73,176.76c-5.63-33.72-42.28-29.56-42.28-29.56,6.13,43.41,42.28,29.56,42.28,29.56Z"/>
      <path class="st0" d="M67.81,216.49c-43.84-13.71-48.39,29.04-48.39,29.04,31.2,7.3,48.39-29.04,48.39-29.04h0Z"/>
      <path class="st0" d="M115.51,214.64s-29.28.74-43.5,28.13c0,0,35.51,2.65,43.5-28.13Z"/>
      <path class="st0" d="M78.25,286.12c35.47,4.88,43.79-25.17,43.79-25.17-31.26-3.34-43.79,25.17-43.79,25.17Z"/>
      <path class="st0" d="M87.5,253.84c-29.81-9.98-48.18,15.17-48.18,15.17,33.59,12.39,48.18-15.17,48.18-15.17h0Z"/>
      <path class="st0" d="M50.42,198.51c-26.49-16.93-50.42,2.98-50.42,2.98,29.56,20.2,50.42-2.98,50.42-2.98Z"/>
      <path class="st0" d="M199.79,117.28c16.84-26.55-3.16-50.41-3.16-50.41-20.09,29.63,3.16,50.41,3.16,50.41Z"/>
      <path class="st0" d="M286.21,0c-34.32,10.19-29.51,41-29.51,41,29.85-9.86,29.51-41,29.51-41Z"/>
      <path class="st0" d="M142.29,265.36s36.16-8.57,23.92-43.58c0,0-27.33,19.27-23.92,43.58Z"/>
    </g>
  </g>
  <g>
    <path class="st0" d="M401.97,31.55c25.73,6.8,32.65,21.44,34.33,30.94l-23.53-7.31c-8.11-11.11-10.79-23.62-10.79-23.62h0Z"/>
    <g>
      <path class="st0" d="M538.49,145.64c1.48-24.75.45-40.48.4-41.14l-.39-5.74c10.27,15.45,10.59,40.23,10.59,40.23l23.97-21.68c-21.79,37.76-24.36,77.1-24.36,77.1,13.93-26.07,35.07-33.87,35.07-33.87-6.79,25.58-41.51,65.38-41.51,65.38,79.44-67.4,166.74-39.39,166.74-39.39-20.75,5.92-41.8,9.43-41.8,9.43,17.24,7.43,20.01,28.32,20.01,28.32,0,0-21.86-15.41-33.18-21.24-11.31-5.83-43.34,1.69-43.34,1.69,27.71,17.39,23.67,48.61,23.67,48.61,0,0-27.44-45.48-48.65-37.31-35.46,18.32-66.42,56.41-87.89,88.55,11.27-21.98,20.39-46.27,27.21-72.57,7.15-27.52,11.68-56.58,13.46-86.4v.03Z"/>
      <path class="st0" d="M608.48,110.88c-5.65,40.38-38.42,41.39-38.42,41.39,7.35-32.73,38.42-41.39,38.42-41.39Z"/>
      <path class="st0" d="M644.69,168.61c.77-26.49,31.86-38.85,31.86-38.85-3.55,39.07-31.86,38.85-31.86,38.85h0Z"/>
      <path class="st0" d="M687.08,140.93c.77-26.49,31.86-38.85,31.86-38.85-3.55,39.07-31.86,38.85-31.86,38.85Z"/>
      <path class="st0" d="M663.66,111.16c-3.4-26.29,25.36-43.37,25.36-43.37,2.64,39.14-25.36,43.37-25.36,43.37Z"/>
      <path class="st0" d="M452.92,22.49c23.08,21.02,23.11,40.06,19.9,51.36l-17.37-5.4c-9.44-21-2.53-45.97-2.53-45.97h0Z"/>
      <path class="st0" d="M578.37,70.86c-22.39-25.18-4.39-63.73-4.39-63.73,30.78,39.24,4.39,63.73,4.39,63.73Z"/>
      <path class="st0" d="M627.55,149.49c-12.03,39.19-40.94,32.87-40.94,32.87,6.48-26.92,40.94-32.87,40.94-32.87Z"/>
      <path class="st0" d="M620.09,135.88c-5.54-33.24,30.22-56.28,30.22-56.28,5.16,49.61-30.22,56.28-30.22,56.28Z"/>
      <path class="st0" d="M526.37,7.11c33.57,36.88,9.05,63.23,9.05,63.23-24.17-23.48-9.05-63.23-9.05-63.23Z"/>
      <path class="st0" d="M498.61,64.36c10.54,8.17,16.85,16.31,20.45,23.86l-21.47-6.67c-.39-9.88,1.02-17.19,1.02-17.19Z"/>
      <path class="st0" d="M599.65,91.26c-.51-33.69,38.28-51.13,38.28-51.13-2.3,49.82-38.28,51.13-38.28,51.13Z"/>
      <path class="st0" d="M700.26,176.76c5.63-33.72,42.28-29.56,42.28-29.56-6.13,43.41-42.28,29.56-42.28,29.56Z"/>
      <path class="st0" d="M689.19,216.49c43.84-13.71,48.39,29.04,48.39,29.04-31.2,7.3-48.39-29.04-48.39-29.04h0Z"/>
      <path class="st0" d="M641.49,214.64s29.28.74,43.5,28.13c0,0-35.51,2.65-43.5-28.13Z"/>
      <path class="st0" d="M678.74,286.12c-35.47,4.88-43.79-25.17-43.79-25.17,31.26-3.34,43.79,25.17,43.79,25.17Z"/>
      <path class="st0" d="M669.5,253.84c29.81-9.98,48.18,15.17,48.18,15.17-33.59,12.39-48.18-15.17-48.18-15.17h0Z"/>
      <path class="st0" d="M706.57,198.51c26.49-16.93,50.42,2.98,50.42,2.98-29.56,20.2-50.42-2.98-50.42-2.98Z"/>
      <path class="st0" d="M557.2,117.28c-16.84-26.55,3.16-50.41,3.16-50.41,20.09,29.63-3.16,50.41-3.16,50.41Z"/>
      <path class="st0" d="M470.79,0c34.32,10.19,29.51,41,29.51,41-29.85-9.86-29.51-41-29.51-41Z"/>
      <path class="st0" d="M614.71,265.36s-36.16-8.57-23.92-43.58c0,0,27.33,19.27,23.92,43.58Z"/>
    </g>
  </g>
  <path class="st0" d="M464.35,340.08c2.75-3.69,5.44-7.45,8.02-11.34,18.73-28.09,33.15-61.31,42.86-98.72,7.02-27.01,11.46-55.57,13.22-84.87,1.45-24.25.45-39.48.41-40.11l-.33-4.87-150.04-46.64-150.04,46.64-.33,4.87c-.04.64-1.05,15.86.41,40.11,1.76,29.3,6.2,57.85,13.22,84.87,9.72,37.41,24.14,70.63,42.86,98.72,2.59,3.88,5.27,7.65,8.02,11.34-64.14,11.76-120.11,36.58-160.95,69.9,46.17-27.93,105.32-48.01,171.5-56.68,20.11,23.44,43.96,42.3,71.19,56.23l4.11,2.08,4.11-2.08c27.24-13.93,51.09-32.79,71.19-56.23,66.18,8.68,125.33,28.76,171.5,56.68-40.84-33.31-96.8-58.13-160.95-69.9h.02ZM448.57,337.48c-3.83,4.8-7.81,9.42-11.95,13.84-16.82,17.96-36.2,32.76-58.12,44.3-21.92-11.54-41.3-26.34-58.12-44.3-4.14-4.42-8.13-9.03-11.95-13.84-23.71-29.76-41.41-66.85-52.89-111.03-13.91-53.58-13.85-100.76-13.41-115.6l136.37-42.39,136.37,42.39c.45,14.84.51,62.02-13.41,115.6-11.47,44.19-29.18,81.27-52.89,111.03Z"/>
</svg>