<?xml version="1.0" encoding="UTF-8"?>
<svg id="Capa_1" xmlns="http://www.w3.org/2000/svg" version="1.1" xmlns:xlink="http://www.w3.org/1999/xlink" viewBox="0 0 602.85 19.58">
  <!-- Generator: Adobe Illustrator 29.2.0, SVG Export Plug-In . SVG Version: 2.1.0 Build 108)  -->
  <defs>
    <style>
      .st0 {
        fill: #fff;
      }
    </style>
  </defs>
  <path class="st0" d="M13.49,19.3H0V.28h2.33v16.92h11.16s0,2.1,0,2.1Z"/>
  <path class="st0" d="M26.09,19.58c-1.37,0-2.66-.24-3.85-.71-1.21-.48-2.24-1.13-3.1-1.99-1.74-1.7-2.8-4.23-2.8-7.09,0-1.91.42-3.6,1.27-5.1s2.02-2.65,3.5-3.46C22.58.42,24.25,0,26.09,0s3.5.41,4.99,1.22c1.47.81,2.63,1.96,3.49,3.46.85,1.5,1.27,3.19,1.27,5.1,0,2.86-1.06,5.39-2.79,7.09-.87.85-1.91,1.51-3.1,1.99-1.2.48-2.49.71-3.87.71h.01ZM18.76,9.79c0,2.27.69,4.1,2.06,5.52,1.36,1.42,3.12,2.12,5.27,2.12s3.91-.7,5.28-2.12c1.36-1.42,2.04-3.25,2.04-5.52s-.69-4.1-2.04-5.52c-1.37-1.4-3.14-2.1-5.28-2.1s-3.91.7-5.27,2.1c-1.37,1.42-2.06,3.25-2.06,5.52Z"/>
  <path class="st0" d="M40.67,9.79c0-1.37.25-2.68.77-3.89.5-1.22,1.19-2.25,2.07-3.11C45.25,1.07,47.76,0,50.44,0,52.13,0,53.7.39,55.15,1.18c1.43.78,2.62,1.88,3.56,3.29l-1.81,1.32c-1.64-2.41-3.78-3.61-6.46-3.61-2.07,0-3.81.73-5.23,2.17-1.41,1.46-2.13,3.28-2.13,5.45,0,4.4,3.29,7.63,7.42,7.63,2.7,0,4.9-1.19,6.57-3.56l1.74,1.25c-.9,1.37-2.07,2.47-3.53,3.26-1.47.8-3.05,1.21-4.78,1.21-2.7,0-5.24-1.06-6.99-2.8-.88-.85-1.57-1.89-2.09-3.11-.52-1.22-.77-2.51-.77-3.88h.02Z"/>
  <path class="st0" d="M64.52,19.3h-2.44L69.94.28h2.72l7.87,19.02h-2.45l-1.77-4.41h-10.01l-1.78,4.41h0ZM67.03,12.92h8.56l-4.29-10.23-4.27,10.23Z"/>
  <path class="st0" d="M99.01,19.3h-13.49V.28h2.33v16.92h11.16s0,2.1,0,2.1Z"/>
  <path class="st0" d="M104.33,19.3V.28h13.08v2.1h-10.77v6.09h9.3v2.1h-9.3v6.64h11.07v2.09h-13.38Z"/>
  <path class="st0" d="M124.33,14.23c1.08,1.95,2.94,3.25,5.58,3.25,1.29,0,2.34-.28,3.17-.84.81-.55,1.22-1.26,1.22-2.14s-.36-1.58-1.08-2.1c-.71-.52-1.95-1.07-3.67-1.64-.8-.27-1.47-.52-2.02-.74-.55-.22-1.11-.5-1.68-.84s-1.04-.69-1.37-1.06c-.69-.73-1.16-1.79-1.16-3.04,0-1.62.8-3.01,1.99-3.82S128.01,0,129.54,0c1.74,0,3.31.48,4.38,1.23,1.06.76,1.75,1.51,2.27,2.39l-1.81,1.32c-.41-.66-.9-1.22-1.68-1.83-.8-.6-1.92-1-3.17-1-1.07,0-1.96.25-2.7.77s-1.11,1.23-1.11,2.16c0,.73.32,1.33.76,1.74.21.21.53.42.97.63.43.22.84.41,1.23.55.38.15.91.34,1.6.57.83.28,1.51.53,2.06.76.55.22,1.13.5,1.74.85.6.35,1.08.73,1.43,1.11.7.77,1.21,1.88,1.21,3.22,0,1.49-.64,2.7-1.92,3.67-1.27.97-2.9,1.44-4.87,1.44-1.75,0-3.26-.39-4.54-1.16-1.29-.77-2.21-1.75-2.77-2.94l1.74-1.25h-.03Z"/>
  <path class="st0" d="M150.15,9.79c0-1.37.25-2.68.77-3.89.5-1.22,1.19-2.25,2.07-3.11C154.73,1.07,157.24,0,159.92,0,161.61,0,163.18.39,164.63,1.18c1.43.78,2.62,1.88,3.56,3.29l-1.81,1.32c-1.64-2.41-3.78-3.61-6.46-3.61-2.07,0-3.81.73-5.23,2.17-1.41,1.46-2.13,3.28-2.13,5.45,0,4.4,3.29,7.63,7.42,7.63,2.7,0,4.9-1.19,6.57-3.56l1.74,1.25c-.9,1.37-2.07,2.47-3.53,3.26-1.47.8-3.05,1.21-4.78,1.21-2.7,0-5.24-1.06-6.99-2.8-.88-.85-1.57-1.89-2.09-3.11-.52-1.22-.77-2.51-.77-3.88h.02Z"/>
  <path class="st0" d="M174,19.3h-2.44L179.42.28h2.72l7.87,19.02h-2.45l-1.77-4.41h-10.01s-1.78,4.41-1.78,4.41ZM176.51,12.92h8.56l-4.29-10.23-4.27,10.23Z"/>
  <path class="st0" d="M195,19.3V.28h2.96l7.07,14.48,7.07-14.48h2.96v19.02h-2.31V4.02l-6.88,13.88h-1.68l-6.88-13.88v15.28h-2.31Z"/>
  <path class="st0" d="M224.69,19.3h-2.31V.28h7.73c1.93,0,3.47.52,4.64,1.57,1.15,1.05,1.72,2.48,1.72,4.27s-.57,3.19-1.72,4.24c-1.16,1.06-2.7,1.6-4.64,1.6h-5.42v7.34ZM224.69,2.41v7.42h5.34c2.59,0,4.02-1.43,4.02-3.71s-1.43-3.71-4.02-3.71c0,0-5.34,0-5.34,0Z"/>
  <path class="st0" d="M242.1,19.3V.28h13.08v2.1h-10.77v6.09h9.3v2.1h-9.3v6.64h11.07v2.09h-13.38Z"/>
  <path class="st0" d="M262.1,14.23c1.08,1.95,2.94,3.25,5.58,3.25,1.29,0,2.34-.28,3.17-.84.81-.55,1.22-1.26,1.22-2.14s-.36-1.58-1.08-2.1c-.71-.52-1.95-1.07-3.67-1.64-.8-.27-1.47-.52-2.02-.74s-1.11-.5-1.68-.84-1.04-.69-1.37-1.06c-.69-.73-1.16-1.79-1.16-3.04,0-1.62.8-3.01,1.99-3.82,1.19-.81,2.7-1.25,4.23-1.25,1.74,0,3.31.48,4.38,1.23,1.06.76,1.75,1.51,2.27,2.39l-1.81,1.32c-.41-.66-.9-1.22-1.68-1.83-.8-.6-1.92-1-3.17-1-1.07,0-1.96.25-2.7.77s-1.11,1.23-1.11,2.16c0,.73.32,1.33.76,1.74.21.21.53.42.97.63.43.22.84.41,1.23.55.38.15.91.34,1.6.57.83.28,1.51.53,2.06.76.55.22,1.13.5,1.74.85.6.35,1.08.73,1.43,1.11.7.77,1.21,1.88,1.21,3.22,0,1.49-.64,2.7-1.92,3.67-1.27.97-2.9,1.44-4.87,1.44-1.75,0-3.26-.39-4.54-1.16-1.29-.77-2.21-1.75-2.77-2.94l1.74-1.25h-.03Z"/>
  <path class="st0" d="M278.03,2.44V.28h15.03v2.16h-6.36v16.87h-2.31V2.44h-6.36Z"/>
  <path class="st0" d="M298.31.28h8.12c1.93,0,3.47.5,4.64,1.53,1.15,1.02,1.72,2.39,1.72,4.12,0,2.7-1.57,4.68-4.16,5.36l4.71,8.01h-2.73l-4.47-7.73h-5.52v7.73h-2.31V.28ZM300.62,2.38v7.13h5.73c2.62,0,4.03-1.39,4.03-3.59s-1.42-3.54-4.03-3.54h-5.73Z"/>
  <path class="st0" d="M318.99,19.3V.28h13.08v2.1h-10.77v6.09h9.3v2.1h-9.3v6.64h11.07v2.09h-13.38Z"/>
  <path class="st0" d="M338.99,14.23c1.08,1.95,2.94,3.25,5.58,3.25,1.29,0,2.34-.28,3.17-.84.81-.55,1.22-1.26,1.22-2.14s-.36-1.58-1.08-2.1c-.71-.52-1.95-1.07-3.67-1.64-.8-.27-1.47-.52-2.02-.74s-1.11-.5-1.68-.84-1.04-.69-1.37-1.06c-.69-.73-1.16-1.79-1.16-3.04,0-1.62.8-3.01,1.99-3.82S342.67,0,344.2,0c1.74,0,3.31.48,4.38,1.23,1.06.76,1.75,1.51,2.27,2.39l-1.81,1.32c-.41-.66-.9-1.22-1.68-1.83-.8-.6-1.92-1-3.17-1-1.07,0-1.96.25-2.7.77s-1.11,1.23-1.11,2.16c0,.73.32,1.33.76,1.74.21.21.53.42.97.63.43.22.84.41,1.23.55.38.15.91.34,1.6.57.83.28,1.51.53,2.06.76.55.22,1.13.5,1.74.85.6.35,1.08.73,1.43,1.11.7.77,1.21,1.88,1.21,3.22,0,1.49-.64,2.7-1.92,3.67-1.27.97-2.9,1.44-4.87,1.44-1.75,0-3.26-.39-4.54-1.16-1.29-.77-2.21-1.75-2.77-2.94l1.74-1.25h-.03Z"/>
  <path class="st0" d="M366.06.28h7.56c1.86,0,3.53.41,5.03,1.23,1.5.83,2.66,1.96,3.5,3.4.84,1.46,1.26,3.08,1.26,4.89s-.42,3.43-1.26,4.88c-.84,1.44-2,2.58-3.5,3.39-1.5.83-3.17,1.23-5.03,1.23h-7.56V.28ZM368.37,17.19h5.25c4.34.06,7.44-3.28,7.37-7.38,0-2.12-.69-3.87-2.05-5.28-1.36-1.4-3.14-2.1-5.32-2.12h-5.25v14.78Z"/>
  <path class="st0" d="M389.5,19.3V.28h13.08v2.1h-10.77v6.09h9.3v2.1h-9.3v6.64h11.07v2.09h-13.38Z"/>
  <path class="st0" d="M431.04,19.3h-13.49V.28h2.33v16.92h11.16s0,2.1,0,2.1Z"/>
  <path class="st0" d="M436.35,19.3V.28h2.31v19.02s-2.31,0-2.31,0Z"/>
  <path class="st0" d="M445.97,19.3V.28h2.96l7.07,14.48,7.07-14.48h2.96v19.02h-2.31V4.02l-6.88,13.88h-1.68l-6.88-13.88v15.28h-2.31Z"/>
  <path class="st0" d="M473.46,19.3h-2.44l7.86-19.02h2.72l7.87,19.02h-2.45l-1.77-4.41h-10.01l-1.78,4.41h0ZM475.97,12.92h8.56l-4.29-10.23-4.27,10.23Z"/>
  <path class="st0" d="M502.27.28h2.42l12.24,15.59V.28h2.31v19.02h-2.42l-12.23-15.53v15.53h-2.33V.28h0Z"/>
  <path class="st0" d="M535.08,19.58c-1.37,0-2.66-.24-3.85-.71-1.21-.48-2.24-1.13-3.1-1.99-1.74-1.7-2.8-4.23-2.8-7.09,0-1.91.42-3.6,1.27-5.1.85-1.5,2.02-2.65,3.5-3.46,1.47-.81,3.14-1.22,4.97-1.22s3.5.41,4.99,1.22c1.47.81,2.63,1.96,3.49,3.46.85,1.5,1.28,3.19,1.28,5.1,0,2.86-1.07,5.39-2.79,7.09-.87.85-1.91,1.51-3.1,1.99-1.2.48-2.49.71-3.87.71h0ZM527.75,9.79c0,2.27.69,4.1,2.06,5.52,1.36,1.42,3.12,2.12,5.27,2.12s3.91-.7,5.28-2.12c1.36-1.42,2.04-3.25,2.04-5.52s-.69-4.1-2.04-5.52c-1.37-1.4-3.14-2.1-5.28-2.1s-3.91.7-5.27,2.1c-1.37,1.42-2.06,3.25-2.06,5.52Z"/>
  <path class="st0" d="M550.92.28h8.12c1.93,0,3.47.5,4.64,1.53,1.15,1.02,1.72,2.39,1.72,4.12,0,2.7-1.57,4.68-4.16,5.36l4.71,8.01h-2.73l-4.47-7.73h-5.52v7.73h-2.31V.28h0ZM553.23,2.38v7.13h5.73c2.62,0,4.03-1.39,4.03-3.59s-1.42-3.54-4.03-3.54h-5.73Z"/>
  <path class="st0" d="M569.2,2.44V.28h15.03v2.16h-6.36v16.87h-2.31V2.44h-6.36Z"/>
  <path class="st0" d="M589.47,19.3V.28h13.08v2.1h-10.77v6.09h9.3v2.1h-9.3v6.64h11.07v2.09h-13.38Z"/>
</svg>