<?xml version="1.0" encoding="UTF-8"?>
<svg id="Capa_1" xmlns="http://www.w3.org/2000/svg" version="1.1" xmlns:xlink="http://www.w3.org/1999/xlink" viewBox="0 0 641.22 52.14">
  <!-- Generator: Adobe Illustrator 29.2.0, SVG Export Plug-In . SVG Version: 2.1.0 Build 108)  -->
  <defs>
    <style>
      .st0 {
        font-family: Mundial-Light, Mundial;
        font-size: 28.7px;
        font-weight: 300;
        letter-spacing: .08em;
      }

      .st0, .st1, .st2 {
        isolation: isolate;
      }

      .st3 {
        fill: #fff;
      }

      .st4 {
        fill: url(#Degradado_sin_nombre_4);
      }

      .st5 {
        fill: url(#Degradado_sin_nombre_2);
      }

      .st6 {
        fill: url(#Degradado_sin_nombre_3);
      }

      .st7 {
        fill: url(#Degradado_sin_nombre);
      }

      .st8 {
        fill: #75a050;
      }

      .st2 {
        font-family: Mestiza-Bold, Mestiza-Bold;
        font-size: 72.31px;
        font-weight: 700;
      }
    </style>
    <linearGradient id="Degradado_sin_nombre" data-name="Degradado sin nombre" x1="-758.2" y1="439.5" x2="-758.2" y2="257.67" gradientTransform="translate(0 54) scale(1 -1)" gradientUnits="userSpaceOnUse">
      <stop offset="0" stop-color="#75a050"/>
      <stop offset="1" stop-color="#8d532d"/>
    </linearGradient>
    <linearGradient id="Degradado_sin_nombre_2" data-name="Degradado sin nombre 2" x1="-1087.26" y1="369.96" x2="-876.08" y2="369.96" gradientTransform="translate(0 54) scale(1 -1)" gradientUnits="userSpaceOnUse">
      <stop offset="0" stop-color="#75a050"/>
      <stop offset="1" stop-color="#8d532d"/>
    </linearGradient>
    <linearGradient id="Degradado_sin_nombre_3" data-name="Degradado sin nombre 3" x1="6669.12" y1="369.96" x2="6880.3" y2="369.96" gradientTransform="translate(6242.86 54) rotate(-180)" gradientUnits="userSpaceOnUse">
      <stop offset="0" stop-color="#75a050"/>
      <stop offset="1" stop-color="#8d532d"/>
    </linearGradient>
    <linearGradient id="Degradado_sin_nombre_4" data-name="Degradado sin nombre 4" x1="-756.78" y1="518.09" x2="-756.78" y2="160.01" gradientTransform="translate(0 54) scale(1 -1)" gradientUnits="userSpaceOnUse">
      <stop offset="0" stop-color="#75a050"/>
      <stop offset="1" stop-color="#8d532d"/>
    </linearGradient>
  </defs>
  <g>
    <path class="st3" d="M.13,27.19C.13,8.39,12.85,0,26.01,0c6.87,0,11.5,2.38,15.7,2.38v16.27c-4.48-9.33-9.76-12.8-16.27-12.8s-12.87,3.33-12.87,19.16,6.51,21.26,13.96,21.26c5.57,0,10.85-2.96,15.19-9.69v13.09c-4.7,0-9.91,2.46-17.35,2.46-12.53,0-24.24-6.94-24.24-24.94Z"/>
    <path class="st3" d="M79.09,51.05c2.02-1.45,3.04-2.89,3.04-5.42,0-5.28-4.05-8.6-12.15-8.6-4.63,0-8.46,1.01-11.21,2.39-.51,1.66-.8,3.04-.8,4.05,0,2.17,1.01,5.93,2.75,7.59h-15.33c1.45-1.3,3.69-5.64,6.07-10.99,5.79-12.87,12.87-31.6,12.87-34.93,0-1.37-1.01-3.33-1.74-4.05h15.11c1.81,7.95,8.17,25.45,14.25,39.05,2.1,4.7,4.05,8.75,5.79,10.92h-18.66,0ZM73.38,30.88c1.01,0,2.02.07,3.04.22-1.95-5.13-5.28-13.45-7.38-19.09-1.81,6.15-5.71,14.9-8.39,21.91,3.62-1.95,8.32-3.04,12.73-3.04Z"/>
    <path class="st3" d="M100.85,50.25v-16.05c4.41,8.97,11.64,12.58,17.43,12.58,4.99,0,7.09-2.39,7.09-5.79,0-10.92-24.37-11.06-24.37-26.75,0-8.53,7.3-14.24,17.28-14.24,5.93,0,9.83,2.1,14.17,2.1v15.26c-3.69-8.03-9.76-12-15.19-12-4.19,0-6.51,2.1-6.51,5.42,0,10.34,24.37,9.98,24.37,26.18,0,8.89-7.23,15.19-17.93,15.19-5.86,0-11.35-1.88-16.34-1.88v-.02Z"/>
    <path class="st3" d="M172.01,51.05c2.02-1.45,3.04-2.89,3.04-5.42,0-5.28-4.05-8.6-12.15-8.6-4.63,0-8.46,1.01-11.21,2.39-.51,1.66-.8,3.04-.8,4.05,0,2.17,1.01,5.93,2.75,7.59h-15.33c1.45-1.3,3.69-5.64,6.07-10.99,5.79-12.87,12.87-31.6,12.87-34.93,0-1.37-1.01-3.33-1.74-4.05h15.11c1.81,7.95,8.17,25.45,14.25,39.05,2.1,4.7,4.05,8.75,5.79,10.92h-18.66.01ZM166.29,30.88c1.01,0,2.02.07,3.04.22-1.95-5.13-5.28-13.45-7.38-19.09-1.81,6.15-5.71,14.9-8.39,21.91,3.62-1.95,8.32-3.04,12.73-3.04h0Z"/>
    <path class="st3" d="M256.1,51.05c2.89-2.1,3.98-5.35,3.98-8.89,0-5.42-2.46-22.56-3.18-30.95-2.24,9.91-11.86,30.44-13.3,40.06h-8.89c-1.01-5.71-11.71-31.02-14.39-40.06-.51,8.75-2.96,24.37-2.96,30.23,0,4.63,1.52,7.52,4.99,9.62h-15.26c1.95-1.74,3.4-5.35,4.05-9.98.51-4.19,3.18-27.84,3.18-32.76,0-2.53-.65-5.28-2.31-7.23h19.67c-.65,1.08-.94,2.31-.94,3.47,0,6.44,8.1,24.3,10.7,33.26,2.75-9.76,10.34-25.09,10.34-32.61,0-1.3-.14-2.82-.87-4.12h19.24c-1.66,1.95-2.31,4.48-2.31,7.52,0,5.28,2.24,24.3,3.25,32.47.51,4.41,2.02,8.24,3.98,9.98h-18.97Z"/>
    <path class="st3" d="M310.55,51.05c2.02-1.45,3.04-2.89,3.04-5.42,0-5.28-4.05-8.6-12.15-8.6-4.63,0-8.46,1.01-11.21,2.39-.51,1.66-.8,3.04-.8,4.05,0,2.17,1.01,5.93,2.75,7.59h-15.33c1.45-1.3,3.69-5.64,6.07-10.99,5.79-12.87,12.87-31.6,12.87-34.93,0-1.37-1.01-3.33-1.74-4.05h15.11c1.81,7.95,8.17,25.45,14.25,39.05,2.1,4.7,4.05,8.75,5.79,10.92h-18.66,0ZM304.84,30.88c1.01,0,2.02.07,3.04.22-1.95-5.13-5.28-13.45-7.38-19.09-1.81,6.15-5.71,14.9-8.39,21.91,3.62-1.95,8.32-3.04,12.73-3.04Z"/>
    <path class="st3" d="M358.71,51.05c1.59-1.23,2.24-3.25,2.17-5.79-.07-6.72-5.42-13.96-13.16-13.96-.51,0-1.01,0-1.52.07v10.05c0,3.76.87,7.01,4.34,9.62h-19.67c3.47-2.6,4.34-5.86,4.34-9.62V10.7c0-3.76-.87-7.01-4.34-9.62h25.45c4.12,0,15.19,1.01,15.19,12.08,0,7.38-4.77,12.37-10.7,14.39,6.22,2.31,9.04,8.46,10.99,15.62.65,2.53,2.1,5.86,5.13,7.88h-18.22ZM352.56,6.43h-6.36v19.24h5.57c4.77,0,8.75-3.76,8.75-10.49,0-6.07-3.25-8.75-7.95-8.75h-.01Z"/>
    <path class="st3" d="M379.31,50.25v-16.05c4.41,8.97,11.64,12.58,17.43,12.58,4.99,0,7.09-2.39,7.09-5.79,0-10.92-24.37-11.06-24.37-26.75,0-8.53,7.3-14.24,17.28-14.24,5.93,0,9.83,2.1,14.17,2.1v15.26c-3.69-8.03-9.76-12-15.19-12-4.19,0-6.51,2.1-6.51,5.42,0,10.34,24.37,9.98,24.37,26.18,0,8.89-7.23,15.19-17.93,15.19-5.86,0-11.35-1.88-16.34-1.88v-.02Z"/>
    <path class="st3" d="M466.09,41.43c0,3.76.79,7.01,4.34,9.62h-19.96c3.47-2.6,4.34-5.86,4.34-9.62v-12.87h-20.17v12.87c0,3.76.79,7.01,4.34,9.62h-19.96c3.47-2.6,4.34-5.86,4.34-9.62V10.7c0-3.76-.87-7.01-4.34-9.62h19.96c-3.54,2.6-4.34,5.86-4.34,9.62v11.64h20.17v-11.64c0-3.76-.87-7.01-4.34-9.62h19.96c-3.54,2.6-4.34,5.86-4.34,9.62v30.73Z"/>
    <path class="st3" d="M505.78,51.05c2.02-1.45,3.04-2.89,3.04-5.42,0-5.28-4.05-8.6-12.15-8.6-4.63,0-8.46,1.01-11.21,2.39-.51,1.66-.8,3.04-.8,4.05,0,2.17,1.01,5.93,2.75,7.59h-15.33c1.45-1.3,3.69-5.64,6.07-10.99,5.79-12.87,12.87-31.6,12.87-34.93,0-1.37-1.01-3.33-1.74-4.05h15.11c1.81,7.95,8.17,25.45,14.25,39.05,2.1,4.7,4.05,8.75,5.79,10.92h-18.66.01ZM500.07,30.88c1.01,0,2.02.07,3.04.22-1.95-5.13-5.28-13.45-7.38-19.09-1.81,6.15-5.71,14.9-8.39,21.91,3.62-1.95,8.32-3.04,12.73-3.04Z"/>
    <path class="st3" d="M547.65,45.12c5.86,0,10.56-1.16,14.9-9.33l-2.6,16.27c-3.62-.94-8.17-1.01-12.51-1.01h-21.33c3.47-2.6,4.34-5.86,4.34-9.62V10.7c0-3.76-.87-7.01-4.34-9.62h19.96c-3.54,2.6-4.34,5.86-4.34,9.62v34.42h5.93-.01Z"/>
    <path class="st3" d="M587.64,45.12c5.86,0,10.56-1.16,14.9-9.33l-2.6,16.27c-3.62-.94-8.17-1.01-12.51-1.01h-21.33c3.47-2.6,4.34-5.86,4.34-9.62V10.7c0-3.76-.87-7.01-4.34-9.62h19.96c-3.54,2.6-4.34,5.86-4.34,9.62v34.42h5.93-.01Z"/>
    <path class="st3" d="M606.94,50.25v-16.05c4.41,8.97,11.64,12.58,17.43,12.58,4.99,0,7.09-2.39,7.09-5.79,0-10.92-24.37-11.06-24.37-26.75,0-8.53,7.3-14.24,17.28-14.24,5.93,0,9.83,2.1,14.17,2.1v15.26c-3.69-8.03-9.76-12-15.18-12-4.19,0-6.51,2.1-6.51,5.42,0,10.34,24.37,9.98,24.37,26.18,0,8.89-7.23,15.19-17.93,15.19-5.86,0-11.35-1.88-16.34-1.88v-.02Z"/>
  </g>
  <g class="st1">
    <text class="st0" transform="translate(-925.3 789)"><tspan x="0" y="0">LOCALES CAMPESTRES DE LIMA NORTE</tspan></text>
  </g>
  <g class="st1">
    <text class="st2" transform="translate(1131.33 103.78)"><tspan x="0" y="0">CASA MARSHALLS</tspan></text>
  </g>
  <g>
    <path class="st7" d="M-790.62-239.73c-8.91-3.89-15.32-6.74-19.26-8.56-3.94-1.81-5.64-8.86-5.12-21.14l3.5-76.26,52.91,142.02.39-1.02.39,1.02,52.91-142.02,3.5,76.26c.52,12.28-1.19,19.32-5.12,21.14-3.93,1.82-10.35,4.67-19.26,8.56l67.83.39c.69,0-2.92-1.77-10.83-5.31-7.91-3.55-12.3-11.93-13.17-25.16l-6.35-95.98c-.52-9.08.93-14.48,4.35-16.21,3.41-1.73,8.75-2.9,16.02-3.5h-46.56l-43.71,117.34-43.71-117.34h-46.56c7.26.61,12.6,1.77,16.02,3.5,3.41,1.73,4.87,7.13,4.35,16.21l-6.35,95.98c-.87,13.23-5.25,21.62-13.17,25.16-7.91,3.55-11.52,5.31-10.83,5.31l67.83-.39Z"/>
    <g>
      <path class="st8" d="M-780.24-486.07c-25.73,6.8-32.65,21.44-34.33,30.94l23.53-7.31c8.11-11.11,10.79-23.62,10.79-23.62h.01Z"/>
      <g>
        <path class="st5" d="M-916.75-371.99c-1.48-24.75-.45-40.48-.4-41.14l.39-5.74c-10.27,15.45-10.59,40.23-10.59,40.23l-23.97-21.68c21.79,37.76,24.36,77.1,24.36,77.1-13.93-26.07-35.07-33.87-35.07-33.87,6.79,25.58,41.51,65.38,41.51,65.38-79.44-67.4-166.74-39.39-166.74-39.39,20.75,5.92,41.8,9.43,41.8,9.43-17.24,7.43-20.01,28.32-20.01,28.32,0,0,21.86-15.41,33.18-21.24s43.34,1.69,43.34,1.69c-27.71,17.39-23.67,48.61-23.67,48.61,0,0,27.44-45.48,48.65-37.31,35.46,18.32,66.42,56.41,87.89,88.55-11.27-21.98-20.39-46.27-27.21-72.57-7.15-27.52-11.68-56.58-13.46-86.4v.03Z"/>
        <path class="st8" d="M-986.75-406.75c5.65,40.38,38.42,41.39,38.42,41.39-7.35-32.73-38.42-41.39-38.42-41.39Z"/>
        <path class="st8" d="M-1022.95-349.02c-.77-26.49-31.86-38.85-31.86-38.85,3.55,39.07,31.86,38.85,31.86,38.85h0Z"/>
        <path class="st8" d="M-1065.35-376.7c-.77-26.49-31.86-38.85-31.86-38.85,3.55,39.07,31.86,38.85,31.86,38.85Z"/>
        <path class="st8" d="M-1041.93-406.46c3.4-26.29-25.36-43.37-25.36-43.37-2.64,39.14,25.36,43.37,25.36,43.37Z"/>
        <path class="st8" d="M-831.19-495.14c-23.08,21.02-23.11,40.06-19.9,51.36l17.37-5.4c9.44-21,2.53-45.97,2.53-45.97h0Z"/>
        <path class="st8" d="M-956.63-446.76c22.39-25.18,4.39-63.73,4.39-63.73-30.78,39.24-4.39,63.73-4.39,63.73Z"/>
        <path class="st8" d="M-1005.82-368.14c12.03,39.19,40.94,32.87,40.94,32.87-6.48-26.92-40.94-32.87-40.94-32.87Z"/>
        <path class="st8" d="M-998.36-381.75c5.54-33.24-30.22-56.28-30.22-56.28-5.16,49.61,30.22,56.28,30.22,56.28Z"/>
        <path class="st8" d="M-904.63-510.51c-33.57,36.88-9.05,63.23-9.05,63.23,24.17-23.48,9.05-63.23,9.05-63.23Z"/>
        <path class="st8" d="M-876.87-453.26c-10.54,8.17-16.85,16.31-20.45,23.86l21.47-6.67c.39-9.88-1.02-17.19-1.02-17.19h0Z"/>
        <path class="st8" d="M-977.91-426.37c.51-33.69-38.28-51.13-38.28-51.13,2.3,49.82,38.28,51.13,38.28,51.13h0Z"/>
        <path class="st8" d="M-1078.53-340.87c-5.63-33.72-42.28-29.56-42.28-29.56,6.13,43.41,42.28,29.56,42.28,29.56Z"/>
        <path class="st8" d="M-1067.45-301.14c-43.84-13.71-48.39,29.04-48.39,29.04,31.2,7.3,48.39-29.04,48.39-29.04Z"/>
        <path class="st8" d="M-1019.76-302.99s-29.28.74-43.5,28.13c0,0,35.51,2.65,43.5-28.13Z"/>
        <path class="st8" d="M-1057.01-231.5c35.47,4.88,43.79-25.17,43.79-25.17-31.26-3.34-43.79,25.17-43.79,25.17h0Z"/>
        <path class="st8" d="M-1047.76-263.78c-29.81-9.98-48.18,15.17-48.18,15.17,33.59,12.39,48.18-15.17,48.18-15.17Z"/>
        <path class="st8" d="M-1084.84-319.11c-26.49-16.93-50.42,2.98-50.42,2.98,29.56,20.2,50.42-2.98,50.42-2.98Z"/>
        <path class="st8" d="M-935.47-400.34c16.84-26.55-3.16-50.41-3.16-50.41-20.09,29.63,3.16,50.41,3.16,50.41Z"/>
        <path class="st8" d="M-849.05-517.63c-34.32,10.19-29.51,41-29.51,41,29.85-9.86,29.51-41,29.51-41Z"/>
        <path class="st8" d="M-992.97-252.27s36.16-8.57,23.92-43.58c0,0-27.33,19.27-23.92,43.58Z"/>
      </g>
    </g>
    <g>
      <path class="st8" d="M-733.29-486.07c25.73,6.8,32.65,21.44,34.33,30.94l-23.53-7.31c-8.11-11.11-10.79-23.62-10.79-23.62h-.01Z"/>
      <g>
        <path class="st6" d="M-596.77-371.99c1.48-24.75.45-40.48.4-41.14l-.39-5.74c10.27,15.45,10.59,40.23,10.59,40.23l23.97-21.68c-21.79,37.76-24.36,77.1-24.36,77.1,13.93-26.07,35.07-33.87,35.07-33.87-6.79,25.58-41.51,65.38-41.51,65.38,79.44-67.4,166.74-39.39,166.74-39.39-20.75,5.92-41.8,9.43-41.8,9.43,17.24,7.43,20.01,28.32,20.01,28.32,0,0-21.86-15.41-33.18-21.24-11.31-5.83-43.34,1.69-43.34,1.69,27.71,17.39,23.67,48.61,23.67,48.61,0,0-27.44-45.48-48.65-37.31-35.46,18.32-66.42,56.41-87.89,88.55,11.27-21.98,20.39-46.27,27.21-72.57,7.15-27.52,11.68-56.58,13.46-86.4v.03Z"/>
        <path class="st8" d="M-526.78-406.75c-5.65,40.38-38.42,41.39-38.42,41.39,7.35-32.73,38.42-41.39,38.42-41.39Z"/>
        <path class="st8" d="M-490.58-349.02c.77-26.49,31.86-38.85,31.86-38.85-3.55,39.07-31.86,38.85-31.86,38.85h0Z"/>
        <path class="st8" d="M-448.18-376.7c.77-26.49,31.86-38.85,31.86-38.85-3.55,39.07-31.86,38.85-31.86,38.85Z"/>
        <path class="st8" d="M-471.6-406.46c-3.4-26.29,25.36-43.37,25.36-43.37,2.64,39.14-25.36,43.37-25.36,43.37h0Z"/>
        <path class="st8" d="M-682.34-495.14c23.08,21.02,23.11,40.06,19.9,51.36l-17.37-5.4c-9.44-21-2.53-45.97-2.53-45.97h0Z"/>
        <path class="st8" d="M-556.89-446.76c-22.39-25.18-4.39-63.73-4.39-63.73,30.78,39.24,4.39,63.73,4.39,63.73Z"/>
        <path class="st8" d="M-507.71-368.14c-12.03,39.19-40.94,32.87-40.94,32.87,6.48-26.92,40.94-32.87,40.94-32.87h0Z"/>
        <path class="st8" d="M-515.17-381.75c-5.54-33.24,30.22-56.28,30.22-56.28,5.16,49.61-30.22,56.28-30.22,56.28Z"/>
        <path class="st8" d="M-608.89-510.51c33.57,36.88,9.05,63.23,9.05,63.23-24.17-23.48-9.05-63.23-9.05-63.23Z"/>
        <path class="st8" d="M-636.65-453.26c10.54,8.17,16.85,16.31,20.45,23.86l-21.47-6.67c-.39-9.88,1.02-17.19,1.02-17.19h0Z"/>
        <path class="st8" d="M-535.61-426.37c-.51-33.69,38.28-51.13,38.28-51.13-2.3,49.82-38.28,51.13-38.28,51.13Z"/>
        <path class="st8" d="M-435-340.87c5.63-33.72,42.28-29.56,42.28-29.56-6.13,43.41-42.28,29.56-42.28,29.56Z"/>
        <path class="st8" d="M-446.07-301.14c43.84-13.71,48.39,29.04,48.39,29.04-31.2,7.3-48.39-29.04-48.39-29.04Z"/>
        <path class="st8" d="M-493.77-302.99s29.28.74,43.5,28.13c0,0-35.51,2.65-43.5-28.13Z"/>
        <path class="st8" d="M-456.52-231.5c-35.47,4.88-43.79-25.17-43.79-25.17,31.26-3.34,43.79,25.17,43.79,25.17h0Z"/>
        <path class="st8" d="M-465.76-263.78c29.81-9.98,48.18,15.17,48.18,15.17-33.59,12.39-48.18-15.17-48.18-15.17Z"/>
        <path class="st8" d="M-428.69-319.11c26.49-16.93,50.42,2.98,50.42,2.98-29.56,20.2-50.42-2.98-50.42-2.98Z"/>
        <path class="st8" d="M-578.06-400.34c-16.84-26.55,3.16-50.41,3.16-50.41,20.09,29.63-3.16,50.41-3.16,50.41Z"/>
        <path class="st8" d="M-664.47-517.63c34.32,10.19,29.51,41,29.51,41-29.85-9.86-29.51-41-29.51-41Z"/>
        <path class="st8" d="M-520.56-252.27s-36.16-8.57-23.92-43.58c0,0,27.33,19.27,23.92,43.58Z"/>
      </g>
    </g>
    <path class="st4" d="M-670.91-177.54c2.75-3.69,5.44-7.45,8.02-11.34,18.73-28.09,33.15-61.31,42.86-98.72,7.02-27.01,11.46-55.57,13.22-84.87,1.45-24.25.45-39.48.41-40.11l-.33-4.87-150.04-46.64-150.04,46.64-.33,4.87c-.04.64-1.05,15.86.41,40.11,1.76,29.3,6.2,57.85,13.22,84.87,9.72,37.41,24.14,70.63,42.86,98.72,2.59,3.88,5.27,7.65,8.02,11.34-64.14,11.76-120.11,36.58-160.95,69.9,46.17-27.93,105.32-48.01,171.5-56.68,20.11,23.44,43.96,42.3,71.19,56.23l4.11,2.08,4.11-2.08c27.24-13.93,51.09-32.79,71.19-56.23,66.18,8.68,125.33,28.76,171.5,56.68-40.84-33.31-96.8-58.13-160.95-69.9h.02ZM-686.69-180.15c-3.83,4.8-7.81,9.42-11.95,13.84-16.82,17.96-36.2,32.76-58.12,44.3-21.92-11.54-41.3-26.34-58.12-44.3-4.14-4.42-8.13-9.03-11.95-13.84-23.71-29.76-41.41-66.85-52.89-111.03-13.91-53.58-13.85-100.76-13.41-115.6l136.37-42.39,136.37,42.39c.45,14.84.51,62.02-13.41,115.6-11.47,44.19-29.18,81.27-52.89,111.03h0Z"/>
  </g>
</svg>