<?xml version="1.0" encoding="UTF-8"?>
<svg id="Capa_1" xmlns="http://www.w3.org/2000/svg" version="1.1" xmlns:xlink="http://www.w3.org/1999/xlink" viewBox="0 0 641.22 95.68">
  <!-- Generator: Adobe Illustrator 29.2.0, SVG Export Plug-In . SVG Version: 2.1.0 Build 108)  -->
  <defs>
    <style>
      .st0 {
        fill: #fff;
      }
    </style>
  </defs>
  <g>
    <path class="st0" d="M33.28,95.4h-13.49v-19.02h2.33v16.92h11.16v2.1Z"/>
    <path class="st0" d="M45.88,95.68c-1.37,0-2.66-.24-3.85-.71-1.21-.48-2.24-1.13-3.1-1.99-1.74-1.7-2.8-4.23-2.8-7.09,0-1.91.42-3.6,1.27-5.1.85-1.5,2.02-2.65,3.5-3.46,1.47-.81,3.14-1.22,4.97-1.22s3.5.41,4.99,1.22c1.47.81,2.63,1.96,3.49,3.46.85,1.5,1.27,3.19,1.27,5.1,0,2.86-1.06,5.39-2.79,7.09-.87.85-1.91,1.51-3.1,1.99-1.2.48-2.49.71-3.87.71h.02,0ZM38.55,85.89c0,2.27.69,4.1,2.06,5.52,1.36,1.42,3.12,2.12,5.27,2.12s3.91-.7,5.28-2.12c1.36-1.42,2.04-3.25,2.04-5.52s-.69-4.1-2.04-5.52c-1.37-1.4-3.14-2.1-5.28-2.1s-3.91.7-5.27,2.1c-1.37,1.42-2.06,3.25-2.06,5.52Z"/>
    <path class="st0" d="M60.47,85.89c0-1.37.25-2.68.77-3.89.5-1.22,1.19-2.25,2.07-3.11,1.74-1.72,4.25-2.79,6.93-2.79,1.69,0,3.26.39,4.71,1.18,1.43.78,2.62,1.88,3.56,3.29l-1.81,1.32c-1.64-2.41-3.78-3.61-6.46-3.61-2.07,0-3.81.73-5.23,2.17-1.41,1.46-2.13,3.28-2.13,5.45,0,4.4,3.29,7.63,7.42,7.63,2.7,0,4.9-1.19,6.57-3.56l1.74,1.25c-.9,1.37-2.07,2.47-3.53,3.26-1.47.8-3.05,1.21-4.78,1.21-2.7,0-5.24-1.06-6.99-2.8-.88-.85-1.57-1.89-2.09-3.11s-.77-2.51-.77-3.88h.02Z"/>
    <path class="st0" d="M84.32,95.4h-2.44l7.86-19.02h2.72l7.87,19.02h-2.45l-1.77-4.41h-10.01s-1.78,4.41-1.78,4.41ZM86.82,89.01h8.56l-4.29-10.23s-4.27,10.23-4.27,10.23Z"/>
    <path class="st0" d="M118.81,95.4h-13.49v-19.02h2.33v16.92h11.16v2.1Z"/>
    <path class="st0" d="M124.12,95.4v-19.02h13.08v2.1h-10.77v6.09h9.3v2.1h-9.3v6.64h11.07v2.09h-13.38Z"/>
    <path class="st0" d="M144.13,90.33c1.08,1.95,2.94,3.25,5.58,3.25,1.29,0,2.34-.28,3.17-.84.81-.55,1.22-1.26,1.22-2.14s-.36-1.58-1.08-2.1c-.71-.52-1.95-1.07-3.67-1.64-.8-.27-1.47-.52-2.02-.74s-1.11-.5-1.68-.84c-.57-.34-1.04-.69-1.37-1.06-.69-.73-1.16-1.79-1.16-3.04,0-1.62.8-3.01,1.99-3.82s2.7-1.25,4.23-1.25c1.74,0,3.31.48,4.38,1.23,1.06.76,1.75,1.51,2.27,2.39l-1.81,1.32c-.41-.66-.9-1.22-1.68-1.83-.8-.6-1.92-1-3.17-1-1.07,0-1.96.25-2.7.77s-1.11,1.23-1.11,2.16c0,.73.32,1.33.76,1.74.21.21.53.42.97.63.43.22.84.41,1.23.55.38.15.91.34,1.6.57.83.28,1.51.53,2.06.76.55.22,1.13.5,1.74.85.6.35,1.08.73,1.43,1.11.7.77,1.21,1.88,1.21,3.22,0,1.49-.64,2.7-1.92,3.67-1.27.97-2.9,1.44-4.87,1.44-1.75,0-3.26-.39-4.54-1.16-1.29-.77-2.21-1.75-2.77-2.94l1.74-1.25h-.03Z"/>
    <path class="st0" d="M169.95,85.89c0-1.37.25-2.68.77-3.89.5-1.22,1.19-2.25,2.07-3.11,1.74-1.72,4.25-2.79,6.93-2.79,1.69,0,3.26.39,4.71,1.18,1.43.78,2.62,1.88,3.56,3.29l-1.81,1.32c-1.64-2.41-3.78-3.61-6.46-3.61-2.07,0-3.81.73-5.23,2.17-1.41,1.46-2.13,3.28-2.13,5.45,0,4.4,3.29,7.63,7.42,7.63,2.7,0,4.9-1.19,6.57-3.56l1.74,1.25c-.9,1.37-2.07,2.47-3.53,3.26-1.47.8-3.05,1.21-4.78,1.21-2.7,0-5.24-1.06-6.99-2.8-.88-.85-1.57-1.89-2.09-3.11-.52-1.22-.77-2.51-.77-3.88h.02,0Z"/>
    <path class="st0" d="M193.79,95.4h-2.44l7.86-19.02h2.72l7.87,19.02h-2.45l-1.77-4.41h-10.01s-1.78,4.41-1.78,4.41ZM196.3,89.01h8.56l-4.29-10.23s-4.27,10.23-4.27,10.23Z"/>
    <path class="st0" d="M214.8,95.4v-19.02h2.96l7.07,14.48,7.07-14.48h2.96v19.02h-2.31v-15.28l-6.88,13.88h-1.68l-6.88-13.88v15.28h-2.31Z"/>
    <path class="st0" d="M244.49,95.4h-2.31v-19.02h7.73c1.93,0,3.47.52,4.64,1.57,1.15,1.05,1.72,2.48,1.72,4.27s-.57,3.19-1.72,4.24c-1.16,1.06-2.7,1.6-4.64,1.6h-5.42v7.34h0ZM244.49,78.51v7.42h5.34c2.59,0,4.02-1.43,4.02-3.71s-1.43-3.71-4.02-3.71h-5.34Z"/>
    <path class="st0" d="M261.89,95.4v-19.02h13.08v2.1h-10.77v6.09h9.3v2.1h-9.3v6.64h11.07v2.09h-13.38Z"/>
    <path class="st0" d="M281.9,90.33c1.08,1.95,2.94,3.25,5.58,3.25,1.29,0,2.34-.28,3.17-.84.81-.55,1.22-1.26,1.22-2.14s-.36-1.58-1.08-2.1c-.71-.52-1.95-1.07-3.67-1.64-.8-.27-1.47-.52-2.02-.74s-1.11-.5-1.68-.84-1.04-.69-1.37-1.06c-.69-.73-1.16-1.79-1.16-3.04,0-1.62.8-3.01,1.99-3.82s2.7-1.25,4.23-1.25c1.74,0,3.31.48,4.38,1.23,1.06.76,1.75,1.51,2.27,2.39l-1.81,1.32c-.41-.66-.9-1.22-1.68-1.83-.8-.6-1.92-1-3.17-1-1.07,0-1.96.25-2.7.77s-1.11,1.23-1.11,2.16c0,.73.32,1.33.76,1.74.21.21.53.42.97.63.43.22.84.41,1.23.55.38.15.91.34,1.6.57.83.28,1.51.53,2.06.76.55.22,1.13.5,1.74.85.6.35,1.08.73,1.43,1.11.7.77,1.21,1.88,1.21,3.22,0,1.49-.64,2.7-1.92,3.67-1.27.97-2.9,1.44-4.87,1.44-1.75,0-3.26-.39-4.54-1.16-1.29-.77-2.21-1.75-2.77-2.94l1.74-1.25h-.03Z"/>
    <path class="st0" d="M297.83,78.53v-2.16h15.03v2.16h-6.36v16.87h-2.31v-16.87h-6.36Z"/>
    <path class="st0" d="M318.1,76.38h8.12c1.93,0,3.47.5,4.64,1.53,1.15,1.02,1.72,2.39,1.72,4.12,0,2.7-1.57,4.68-4.16,5.36l4.71,8.01h-2.73l-4.47-7.73h-5.52v7.73h-2.31v-19.02ZM320.41,78.48v7.13h5.73c2.62,0,4.03-1.39,4.03-3.59s-1.42-3.54-4.03-3.54h-5.73Z"/>
    <path class="st0" d="M338.78,95.4v-19.02h13.08v2.1h-10.77v6.09h9.3v2.1h-9.3v6.64h11.07v2.09h-13.38Z"/>
    <path class="st0" d="M358.79,90.33c1.08,1.95,2.94,3.25,5.58,3.25,1.29,0,2.34-.28,3.17-.84.81-.55,1.22-1.26,1.22-2.14s-.36-1.58-1.08-2.1c-.71-.52-1.95-1.07-3.67-1.64-.8-.27-1.47-.52-2.02-.74s-1.11-.5-1.68-.84-1.04-.69-1.37-1.06c-.69-.73-1.16-1.79-1.16-3.04,0-1.62.8-3.01,1.99-3.82s2.7-1.25,4.23-1.25c1.74,0,3.31.48,4.38,1.23,1.06.76,1.75,1.51,2.27,2.39l-1.81,1.32c-.41-.66-.9-1.22-1.68-1.83-.8-.6-1.92-1-3.17-1-1.07,0-1.96.25-2.7.77s-1.11,1.23-1.11,2.16c0,.73.32,1.33.76,1.74.21.21.53.42.97.63.43.22.84.41,1.23.55.38.15.91.34,1.6.57.83.28,1.51.53,2.06.76.55.22,1.13.5,1.74.85.6.35,1.08.73,1.43,1.11.7.77,1.21,1.88,1.21,3.22,0,1.49-.64,2.7-1.92,3.67-1.27.97-2.9,1.44-4.87,1.44-1.75,0-3.26-.39-4.54-1.16-1.29-.77-2.21-1.75-2.77-2.94l1.74-1.25h-.03Z"/>
    <path class="st0" d="M385.85,76.38h7.56c1.86,0,3.53.41,5.03,1.23,1.5.83,2.66,1.96,3.5,3.4.84,1.46,1.26,3.08,1.26,4.89s-.42,3.43-1.26,4.88c-.84,1.44-2,2.58-3.5,3.39-1.5.83-3.17,1.23-5.03,1.23h-7.56v-19.02ZM388.17,93.28h5.25c4.34.06,7.44-3.28,7.37-7.38,0-2.12-.69-3.87-2.05-5.28-1.36-1.4-3.14-2.1-5.32-2.12h-5.25v14.78Z"/>
    <path class="st0" d="M409.3,95.4v-19.02h13.08v2.1h-10.77v6.09h9.3v2.1h-9.3v6.64h11.07v2.09h-13.38Z"/>
    <path class="st0" d="M450.83,95.4h-13.49v-19.02h2.33v16.92h11.16v2.1Z"/>
    <path class="st0" d="M456.14,95.4v-19.02h2.31v19.02s-2.31,0-2.31,0Z"/>
    <path class="st0" d="M465.77,95.4v-19.02h2.96l7.07,14.48,7.07-14.48h2.96v19.02h-2.31v-15.28l-6.88,13.88h-1.68l-6.88-13.88v15.28s-2.31,0-2.31,0Z"/>
    <path class="st0" d="M493.26,95.4h-2.44l7.86-19.02h2.72l7.87,19.02h-2.45l-1.77-4.41h-10.01l-1.78,4.41h0ZM495.77,89.01h8.56l-4.29-10.23s-4.27,10.23-4.27,10.23Z"/>
    <path class="st0" d="M522.06,76.38h2.42l12.24,15.59v-15.59h2.31v19.02h-2.42l-12.23-15.53v15.53h-2.33v-19.02s.01,0,.01,0Z"/>
    <path class="st0" d="M554.87,95.68c-1.37,0-2.66-.24-3.85-.71-1.21-.48-2.24-1.13-3.1-1.99-1.74-1.7-2.8-4.23-2.8-7.09,0-1.91.42-3.6,1.27-5.1.85-1.5,2.02-2.65,3.5-3.46,1.47-.81,3.14-1.22,4.97-1.22s3.5.41,4.99,1.22c1.47.81,2.63,1.96,3.49,3.46.85,1.5,1.28,3.19,1.28,5.1,0,2.86-1.07,5.39-2.79,7.09-.87.85-1.91,1.51-3.1,1.99-1.2.48-2.49.71-3.87.71h0ZM547.55,85.89c0,2.27.69,4.1,2.06,5.52,1.36,1.42,3.12,2.12,5.27,2.12s3.91-.7,5.28-2.12c1.36-1.42,2.04-3.25,2.04-5.52s-.69-4.1-2.04-5.52c-1.37-1.4-3.14-2.1-5.28-2.1s-3.91.7-5.27,2.1c-1.37,1.42-2.06,3.25-2.06,5.52Z"/>
    <path class="st0" d="M570.71,76.38h8.12c1.93,0,3.47.5,4.64,1.53,1.15,1.02,1.72,2.39,1.72,4.12,0,2.7-1.57,4.68-4.16,5.36l4.71,8.01h-2.73l-4.47-7.73h-5.52v7.73h-2.31v-19.02h0ZM573.02,78.48v7.13h5.73c2.62,0,4.03-1.39,4.03-3.59s-1.42-3.54-4.03-3.54h-5.73Z"/>
    <path class="st0" d="M588.99,78.53v-2.16h15.03v2.16h-6.36v16.87h-2.31v-16.87h-6.36Z"/>
    <path class="st0" d="M609.27,95.4v-19.02h13.08v2.1h-10.77v6.09h9.3v2.1h-9.3v6.64h11.07v2.09h-13.38Z"/>
  </g>
  <g>
    <path class="st0" d="M.13,27.19C.13,8.39,12.85,0,26.01,0c6.87,0,11.5,2.38,15.7,2.38v16.27c-4.48-9.33-9.76-12.8-16.27-12.8s-12.87,3.33-12.87,19.16,6.51,21.26,13.96,21.26c5.57,0,10.85-2.96,15.19-9.69v13.09c-4.7,0-9.91,2.46-17.35,2.46C11.84,52.13.13,45.19.13,27.19Z"/>
    <path class="st0" d="M79.09,51.05c2.02-1.45,3.04-2.89,3.04-5.42,0-5.28-4.05-8.6-12.15-8.6-4.63,0-8.46,1.01-11.21,2.39-.51,1.66-.8,3.04-.8,4.05,0,2.17,1.01,5.93,2.75,7.59h-15.33c1.45-1.3,3.69-5.64,6.07-10.99,5.79-12.87,12.87-31.6,12.87-34.93,0-1.37-1.01-3.33-1.74-4.05h15.11c1.81,7.95,8.17,25.45,14.25,39.05,2.1,4.7,4.05,8.75,5.79,10.92h-18.66,0ZM73.38,30.88c1.01,0,2.02.07,3.04.22-1.95-5.13-5.28-13.45-7.38-19.09-1.81,6.15-5.71,14.9-8.39,21.91,3.62-1.95,8.32-3.04,12.73-3.04Z"/>
    <path class="st0" d="M100.85,50.25v-16.05c4.41,8.97,11.64,12.58,17.43,12.58,4.99,0,7.09-2.39,7.09-5.79,0-10.92-24.37-11.06-24.37-26.75C101,5.71,108.3,0,118.28,0,124.21,0,128.11,2.1,132.45,2.1v15.26c-3.69-8.03-9.76-12-15.19-12-4.19,0-6.51,2.1-6.51,5.42,0,10.34,24.37,9.98,24.37,26.18,0,8.89-7.23,15.19-17.93,15.19-5.86,0-11.35-1.88-16.34-1.88,0,0,0-.02,0-.02Z"/>
    <path class="st0" d="M172.01,51.05c2.02-1.45,3.04-2.89,3.04-5.42,0-5.28-4.05-8.6-12.15-8.6-4.63,0-8.46,1.01-11.21,2.39-.51,1.66-.8,3.04-.8,4.05,0,2.17,1.01,5.93,2.75,7.59h-15.33c1.45-1.3,3.69-5.64,6.07-10.99,5.79-12.87,12.87-31.6,12.87-34.93,0-1.37-1.01-3.33-1.74-4.05h15.11c1.81,7.95,8.17,25.45,14.25,39.05,2.1,4.7,4.05,8.75,5.79,10.92h-18.66.01ZM166.29,30.88c1.01,0,2.02.07,3.04.22-1.95-5.13-5.28-13.45-7.38-19.09-1.81,6.15-5.71,14.9-8.39,21.91,3.62-1.95,8.32-3.04,12.73-3.04h0Z"/>
    <path class="st0" d="M256.1,51.05c2.89-2.1,3.98-5.35,3.98-8.89,0-5.42-2.46-22.56-3.18-30.95-2.24,9.91-11.86,30.44-13.3,40.06h-8.89c-1.01-5.71-11.71-31.02-14.39-40.06-.51,8.75-2.96,24.37-2.96,30.23,0,4.63,1.52,7.52,4.99,9.62h-15.26c1.95-1.74,3.4-5.35,4.05-9.98.51-4.19,3.18-27.84,3.18-32.76,0-2.53-.65-5.28-2.31-7.23h19.67c-.65,1.08-.94,2.31-.94,3.47,0,6.44,8.1,24.3,10.7,33.26,2.75-9.76,10.34-25.09,10.34-32.61,0-1.3-.14-2.82-.87-4.12h19.24c-1.66,1.95-2.31,4.48-2.31,7.52,0,5.28,2.24,24.3,3.25,32.47.51,4.41,2.02,8.24,3.98,9.98h-18.97Z"/>
    <path class="st0" d="M310.55,51.05c2.02-1.45,3.04-2.89,3.04-5.42,0-5.28-4.05-8.6-12.15-8.6-4.63,0-8.46,1.01-11.21,2.39-.51,1.66-.8,3.04-.8,4.05,0,2.17,1.01,5.93,2.75,7.59h-15.33c1.45-1.3,3.69-5.64,6.07-10.99,5.79-12.87,12.87-31.6,12.87-34.93,0-1.37-1.01-3.33-1.74-4.05h15.11c1.81,7.95,8.17,25.45,14.25,39.05,2.1,4.7,4.05,8.75,5.79,10.92h-18.66,0ZM304.84,30.88c1.01,0,2.02.07,3.04.22-1.95-5.13-5.28-13.45-7.38-19.09-1.81,6.15-5.71,14.9-8.39,21.91,3.62-1.95,8.32-3.04,12.73-3.04Z"/>
    <path class="st0" d="M358.71,51.05c1.59-1.23,2.24-3.25,2.17-5.79-.07-6.72-5.42-13.96-13.16-13.96-.51,0-1.01,0-1.52.07v10.05c0,3.76.87,7.01,4.34,9.62h-19.67c3.47-2.6,4.34-5.86,4.34-9.62V10.7c0-3.76-.87-7.01-4.34-9.62h25.45c4.12,0,15.19,1.01,15.19,12.08,0,7.38-4.77,12.37-10.7,14.39,6.22,2.31,9.04,8.46,10.99,15.62.65,2.53,2.1,5.86,5.13,7.88h-18.22ZM352.56,6.43h-6.36v19.24h5.57c4.77,0,8.75-3.76,8.75-10.49,0-6.07-3.25-8.75-7.95-8.75,0,0-.01,0-.01,0Z"/>
    <path class="st0" d="M379.31,50.25v-16.05c4.41,8.97,11.64,12.58,17.43,12.58,4.99,0,7.09-2.39,7.09-5.79,0-10.92-24.37-11.06-24.37-26.75C379.46,5.71,386.76,0,396.74,0,402.67,0,406.57,2.1,410.91,2.1v15.26c-3.69-8.03-9.76-12-15.19-12-4.19,0-6.51,2.1-6.51,5.42,0,10.34,24.37,9.98,24.37,26.18,0,8.89-7.23,15.19-17.93,15.19-5.86,0-11.35-1.88-16.34-1.88,0,0,0-.02,0-.02Z"/>
    <path class="st0" d="M466.09,41.43c0,3.76.79,7.01,4.34,9.62h-19.96c3.47-2.6,4.34-5.86,4.34-9.62v-12.87h-20.17v12.87c0,3.76.79,7.01,4.34,9.62h-19.96c3.47-2.6,4.34-5.86,4.34-9.62V10.7c0-3.76-.87-7.01-4.34-9.62h19.96c-3.54,2.6-4.34,5.86-4.34,9.62v11.64h20.17v-11.64c0-3.76-.87-7.01-4.34-9.62h19.96c-3.54,2.6-4.34,5.86-4.34,9.62v30.73Z"/>
    <path class="st0" d="M505.78,51.05c2.02-1.45,3.04-2.89,3.04-5.42,0-5.28-4.05-8.6-12.15-8.6-4.63,0-8.46,1.01-11.21,2.39-.51,1.66-.8,3.04-.8,4.05,0,2.17,1.01,5.93,2.75,7.59h-15.33c1.45-1.3,3.69-5.64,6.07-10.99,5.79-12.87,12.87-31.6,12.87-34.93,0-1.37-1.01-3.33-1.74-4.05h15.11c1.81,7.95,8.17,25.45,14.25,39.05,2.1,4.7,4.05,8.75,5.79,10.92h-18.66.01ZM500.07,30.88c1.01,0,2.02.07,3.04.22-1.95-5.13-5.28-13.45-7.38-19.09-1.81,6.15-5.71,14.9-8.39,21.91,3.62-1.95,8.32-3.04,12.73-3.04Z"/>
    <path class="st0" d="M547.65,45.12c5.86,0,10.56-1.16,14.9-9.33l-2.6,16.27c-3.62-.94-8.17-1.01-12.51-1.01h-21.33c3.47-2.6,4.34-5.86,4.34-9.62V10.7c0-3.76-.87-7.01-4.34-9.62h19.96c-3.54,2.6-4.34,5.86-4.34,9.62v34.42h5.93-.01Z"/>
    <path class="st0" d="M587.64,45.12c5.86,0,10.56-1.16,14.9-9.33l-2.6,16.27c-3.62-.94-8.17-1.01-12.51-1.01h-21.33c3.47-2.6,4.34-5.86,4.34-9.62V10.7c0-3.76-.87-7.01-4.34-9.62h19.96c-3.54,2.6-4.34,5.86-4.34,9.62v34.42h5.93-.01Z"/>
    <path class="st0" d="M606.94,50.25v-16.05c4.41,8.97,11.64,12.58,17.43,12.58,4.99,0,7.09-2.39,7.09-5.79,0-10.92-24.37-11.06-24.37-26.75C607.09,5.71,614.39,0,624.37,0c5.93,0,9.83,2.1,14.17,2.1v15.26c-3.69-8.03-9.76-12-15.18-12-4.19,0-6.51,2.1-6.51,5.42,0,10.34,24.37,9.98,24.37,26.18,0,8.89-7.23,15.19-17.93,15.19-5.86,0-11.35-1.88-16.34-1.88v-.02h-.01Z"/>
  </g>
</svg>