<?xml version="1.0" encoding="UTF-8"?>
<svg id="Capa_1" xmlns="http://www.w3.org/2000/svg" version="1.1" xmlns:xlink="http://www.w3.org/1999/xlink" viewBox="0 0 641.22 52.14">
  <!-- Generator: Adobe Illustrator 29.2.0, SVG Export Plug-In . SVG Version: 2.1.0 Build 108)  -->
  <path d="M.13,27.19C.13,8.39,12.85,0,26.01,0c6.87,0,11.5,2.38,15.7,2.38v16.27c-4.48-9.33-9.76-12.8-16.27-12.8s-12.87,3.33-12.87,19.16,6.51,21.26,13.96,21.26c5.57,0,10.85-2.96,15.19-9.69v13.09c-4.7,0-9.91,2.46-17.35,2.46-12.53,0-24.24-6.94-24.24-24.94Z"/>
  <path d="M79.09,51.05c2.02-1.45,3.04-2.89,3.04-5.42,0-5.28-4.05-8.6-12.15-8.6-4.63,0-8.46,1.01-11.21,2.39-.51,1.66-.8,3.04-.8,4.05,0,2.17,1.01,5.93,2.75,7.59h-15.33c1.45-1.3,3.69-5.64,6.07-10.99,5.79-12.87,12.87-31.6,12.87-34.93,0-1.37-1.01-3.33-1.74-4.05h15.11c1.81,7.95,8.17,25.45,14.25,39.05,2.1,4.7,4.05,8.75,5.79,10.92h-18.66,0ZM73.38,30.88c1.01,0,2.02.07,3.04.22-1.95-5.13-5.28-13.45-7.38-19.09-1.81,6.15-5.71,14.9-8.39,21.91,3.62-1.95,8.32-3.04,12.73-3.04Z"/>
  <path d="M100.85,50.25v-16.05c4.41,8.97,11.64,12.58,17.43,12.58,4.99,0,7.09-2.39,7.09-5.79,0-10.92-24.37-11.06-24.37-26.75,0-8.53,7.3-14.24,17.28-14.24,5.93,0,9.83,2.1,14.17,2.1v15.26c-3.69-8.03-9.76-12-15.19-12-4.19,0-6.51,2.1-6.51,5.42,0,10.34,24.37,9.98,24.37,26.18,0,8.89-7.23,15.19-17.93,15.19-5.86,0-11.35-1.88-16.34-1.88v-.02Z"/>
  <path d="M172.01,51.05c2.02-1.45,3.04-2.89,3.04-5.42,0-5.28-4.05-8.6-12.15-8.6-4.63,0-8.46,1.01-11.21,2.39-.51,1.66-.8,3.04-.8,4.05,0,2.17,1.01,5.93,2.75,7.59h-15.33c1.45-1.3,3.69-5.64,6.07-10.99,5.79-12.87,12.87-31.6,12.87-34.93,0-1.37-1.01-3.33-1.74-4.05h15.11c1.81,7.95,8.17,25.45,14.25,39.05,2.1,4.7,4.05,8.75,5.79,10.92h-18.66.01ZM166.29,30.88c1.01,0,2.02.07,3.04.22-1.95-5.13-5.28-13.45-7.38-19.09-1.81,6.15-5.71,14.9-8.39,21.91,3.62-1.95,8.32-3.04,12.73-3.04h0Z"/>
  <path d="M256.1,51.05c2.89-2.1,3.98-5.35,3.98-8.89,0-5.42-2.46-22.56-3.18-30.95-2.24,9.91-11.86,30.44-13.3,40.06h-8.89c-1.01-5.71-11.71-31.02-14.39-40.06-.51,8.75-2.96,24.37-2.96,30.23,0,4.63,1.52,7.52,4.99,9.62h-15.26c1.95-1.74,3.4-5.35,4.05-9.98.51-4.19,3.18-27.84,3.18-32.76,0-2.53-.65-5.28-2.31-7.23h19.67c-.65,1.08-.94,2.31-.94,3.47,0,6.44,8.1,24.3,10.7,33.26,2.75-9.76,10.34-25.09,10.34-32.61,0-1.3-.14-2.82-.87-4.12h19.24c-1.66,1.95-2.31,4.48-2.31,7.52,0,5.28,2.24,24.3,3.25,32.47.51,4.41,2.02,8.24,3.98,9.98h-18.97Z"/>
  <path d="M310.55,51.05c2.02-1.45,3.04-2.89,3.04-5.42,0-5.28-4.05-8.6-12.15-8.6-4.63,0-8.46,1.01-11.21,2.39-.51,1.66-.8,3.04-.8,4.05,0,2.17,1.01,5.93,2.75,7.59h-15.33c1.45-1.3,3.69-5.64,6.07-10.99,5.79-12.87,12.87-31.6,12.87-34.93,0-1.37-1.01-3.33-1.74-4.05h15.11c1.81,7.95,8.17,25.45,14.25,39.05,2.1,4.7,4.05,8.75,5.79,10.92h-18.66,0ZM304.84,30.88c1.01,0,2.02.07,3.04.22-1.95-5.13-5.28-13.45-7.38-19.09-1.81,6.15-5.71,14.9-8.39,21.91,3.62-1.95,8.32-3.04,12.73-3.04Z"/>
  <path d="M358.71,51.05c1.59-1.23,2.24-3.25,2.17-5.79-.07-6.72-5.42-13.96-13.16-13.96-.51,0-1.01,0-1.52.07v10.05c0,3.76.87,7.01,4.34,9.62h-19.67c3.47-2.6,4.34-5.86,4.34-9.62V10.7c0-3.76-.87-7.01-4.34-9.62h25.45c4.12,0,15.19,1.01,15.19,12.08,0,7.38-4.77,12.37-10.7,14.39,6.22,2.31,9.04,8.46,10.99,15.62.65,2.53,2.1,5.86,5.13,7.88h-18.22ZM352.56,6.43h-6.36v19.24h5.57c4.77,0,8.75-3.76,8.75-10.49,0-6.07-3.25-8.75-7.95-8.75h-.01Z"/>
  <path d="M379.31,50.25v-16.05c4.41,8.97,11.64,12.58,17.43,12.58,4.99,0,7.09-2.39,7.09-5.79,0-10.92-24.37-11.06-24.37-26.75,0-8.53,7.3-14.24,17.28-14.24,5.93,0,9.83,2.1,14.17,2.1v15.26c-3.69-8.03-9.76-12-15.19-12-4.19,0-6.51,2.1-6.51,5.42,0,10.34,24.37,9.98,24.37,26.18,0,8.89-7.23,15.19-17.93,15.19-5.86,0-11.35-1.88-16.34-1.88v-.02Z"/>
  <path d="M466.09,41.43c0,3.76.79,7.01,4.34,9.62h-19.96c3.47-2.6,4.34-5.86,4.34-9.62v-12.87h-20.17v12.87c0,3.76.79,7.01,4.34,9.62h-19.96c3.47-2.6,4.34-5.86,4.34-9.62V10.7c0-3.76-.87-7.01-4.34-9.62h19.96c-3.54,2.6-4.34,5.86-4.34,9.62v11.64h20.17v-11.64c0-3.76-.87-7.01-4.34-9.62h19.96c-3.54,2.6-4.34,5.86-4.34,9.62v30.73Z"/>
  <path d="M505.78,51.05c2.02-1.45,3.04-2.89,3.04-5.42,0-5.28-4.05-8.6-12.15-8.6-4.63,0-8.46,1.01-11.21,2.39-.51,1.66-.8,3.04-.8,4.05,0,2.17,1.01,5.93,2.75,7.59h-15.33c1.45-1.3,3.69-5.64,6.07-10.99,5.79-12.87,12.87-31.6,12.87-34.93,0-1.37-1.01-3.33-1.74-4.05h15.11c1.81,7.95,8.17,25.45,14.25,39.05,2.1,4.7,4.05,8.75,5.79,10.92h-18.66.01ZM500.07,30.88c1.01,0,2.02.07,3.04.22-1.95-5.13-5.28-13.45-7.38-19.09-1.81,6.15-5.71,14.9-8.39,21.91,3.62-1.95,8.32-3.04,12.73-3.04Z"/>
  <path d="M547.65,45.12c5.86,0,10.56-1.16,14.9-9.33l-2.6,16.27c-3.62-.94-8.17-1.01-12.51-1.01h-21.33c3.47-2.6,4.34-5.86,4.34-9.62V10.7c0-3.76-.87-7.01-4.34-9.62h19.96c-3.54,2.6-4.34,5.86-4.34,9.62v34.42h5.93-.01Z"/>
  <path d="M587.64,45.12c5.86,0,10.56-1.16,14.9-9.33l-2.6,16.27c-3.62-.94-8.17-1.01-12.51-1.01h-21.33c3.47-2.6,4.34-5.86,4.34-9.62V10.7c0-3.76-.87-7.01-4.34-9.62h19.96c-3.54,2.6-4.34,5.86-4.34,9.62v34.42h5.93-.01Z"/>
  <path d="M606.94,50.25v-16.05c4.41,8.97,11.64,12.58,17.43,12.58,4.99,0,7.09-2.39,7.09-5.79,0-10.92-24.37-11.06-24.37-26.75,0-8.53,7.3-14.24,17.28-14.24,5.93,0,9.83,2.1,14.17,2.1v15.26c-3.69-8.03-9.76-12-15.18-12-4.19,0-6.51,2.1-6.51,5.42,0,10.34,24.37,9.98,24.37,26.18,0,8.89-7.23,15.19-17.93,15.19-5.86,0-11.35-1.88-16.34-1.88v-.02Z"/>
</svg>