<?xml version="1.0" encoding="UTF-8"?>
<svg id="Capa_1" xmlns="http://www.w3.org/2000/svg" version="1.1" viewBox="0 0 756.99 518.89">
  <!-- Generator: Adobe Illustrator 29.2.0, SVG Export Plug-In . SVG Version: 2.1.0 Build 108)  -->
  <defs>
    <style>
      .st0 {
        fill: #fff;
      }
    </style>
  </defs>
  <g>
    <path class="st0" d="M89.75,518.61h-13.49v-19.02h2.33v16.92h11.16v2.1Z"/>
    <path class="st0" d="M102.35,518.89c-1.37,0-2.66-.24-3.85-.71-1.21-.48-2.24-1.13-3.1-1.99-1.74-1.7-2.8-4.23-2.8-7.09,0-1.91.42-3.6,1.27-5.1.85-1.5,2.02-2.65,3.5-3.46,1.47-.81,3.14-1.22,4.97-1.22s3.5.41,4.99,1.22c1.47.81,2.63,1.96,3.49,3.46.85,1.5,1.27,3.19,1.27,5.1,0,2.86-1.06,5.39-2.79,7.09-.87.85-1.91,1.51-3.1,1.99-1.2.48-2.49.71-3.87.71ZM95.02,509.1c0,2.27.69,4.1,2.06,5.52,1.36,1.42,3.12,2.12,5.27,2.12s3.91-.7,5.28-2.12c1.36-1.42,2.04-3.25,2.04-5.52s-.69-4.1-2.04-5.52c-1.37-1.4-3.14-2.1-5.28-2.1s-3.91.7-5.27,2.1c-1.37,1.42-2.06,3.25-2.06,5.52Z"/>
    <path class="st0" d="M116.94,509.1c0-1.37.25-2.68.77-3.89.5-1.22,1.19-2.25,2.07-3.11,1.74-1.72,4.25-2.79,6.93-2.79,1.69,0,3.26.39,4.71,1.18,1.43.78,2.62,1.88,3.56,3.29l-1.81,1.32c-1.64-2.41-3.78-3.61-6.46-3.61-2.07,0-3.81.73-5.23,2.17-1.41,1.46-2.13,3.28-2.13,5.45,0,4.4,3.29,7.63,7.42,7.63,2.7,0,4.9-1.19,6.57-3.56l1.74,1.25c-.9,1.37-2.07,2.47-3.53,3.26-1.47.8-3.05,1.21-4.78,1.21-2.7,0-5.24-1.06-6.99-2.8-.88-.85-1.57-1.89-2.09-3.11-.52-1.22-.77-2.51-.77-3.88Z"/>
    <path class="st0" d="M140.78,518.61h-2.44l7.86-19.02h2.72l7.87,19.02h-2.45l-1.77-4.41h-10.01l-1.78,4.41ZM143.29,512.22h8.56l-4.29-10.23-4.27,10.23Z"/>
    <path class="st0" d="M175.28,518.61h-13.49v-19.02h2.33v16.92h11.16v2.1Z"/>
    <path class="st0" d="M180.59,518.61v-19.02h13.08v2.1h-10.77v6.09h9.3v2.1h-9.3v6.64h11.07v2.09h-13.38Z"/>
    <path class="st0" d="M200.6,513.54c1.08,1.95,2.94,3.25,5.58,3.25,1.29,0,2.34-.28,3.17-.84.81-.55,1.22-1.26,1.22-2.14s-.36-1.58-1.08-2.1c-.71-.52-1.95-1.07-3.67-1.64-.8-.27-1.47-.52-2.02-.74-.55-.22-1.11-.5-1.68-.84-.57-.34-1.04-.69-1.37-1.06-.69-.73-1.16-1.79-1.16-3.04,0-1.62.8-3.01,1.99-3.82s2.7-1.25,4.23-1.25c1.74,0,3.31.48,4.38,1.23,1.06.76,1.75,1.51,2.27,2.39l-1.81,1.32c-.41-.66-.9-1.22-1.68-1.83-.8-.6-1.92-1-3.17-1-1.07,0-1.96.25-2.7.77s-1.11,1.23-1.11,2.16c0,.73.32,1.33.76,1.74.21.21.53.42.97.63.43.22.84.41,1.23.55.38.15.91.34,1.6.57.83.28,1.51.53,2.06.76.55.22,1.13.5,1.74.85.6.35,1.08.73,1.43,1.11.7.77,1.21,1.88,1.21,3.22,0,1.49-.64,2.7-1.92,3.67-1.27.97-2.9,1.44-4.87,1.44-1.75,0-3.26-.39-4.54-1.16-1.29-.77-2.21-1.75-2.77-2.94l1.74-1.25Z"/>
    <path class="st0" d="M226.42,509.1c0-1.37.25-2.68.77-3.89.5-1.22,1.19-2.25,2.07-3.11,1.74-1.72,4.25-2.79,6.93-2.79,1.69,0,3.26.39,4.71,1.18,1.43.78,2.62,1.88,3.56,3.29l-1.81,1.32c-1.64-2.41-3.78-3.61-6.46-3.61-2.07,0-3.81.73-5.23,2.17-1.41,1.46-2.13,3.28-2.13,5.45,0,4.4,3.29,7.63,7.42,7.63,2.7,0,4.9-1.19,6.57-3.56l1.74,1.25c-.9,1.37-2.07,2.47-3.53,3.26-1.47.8-3.05,1.21-4.78,1.21-2.7,0-5.24-1.06-6.99-2.8-.88-.85-1.57-1.89-2.09-3.11-.52-1.22-.77-2.51-.77-3.88Z"/>
    <path class="st0" d="M250.26,518.61h-2.44l7.86-19.02h2.72l7.87,19.02h-2.45l-1.77-4.41h-10.01l-1.78,4.41ZM252.77,512.22h8.56l-4.29-10.23-4.27,10.23Z"/>
    <path class="st0" d="M271.26,518.61v-19.02h2.96l7.07,14.48,7.07-14.48h2.96v19.02h-2.31v-15.28l-6.88,13.88h-1.68l-6.88-13.88v15.28h-2.31Z"/>
    <path class="st0" d="M300.96,518.61h-2.31v-19.02h7.73c1.93,0,3.47.52,4.64,1.57,1.15,1.05,1.72,2.48,1.72,4.27s-.57,3.19-1.72,4.24c-1.16,1.06-2.7,1.6-4.64,1.6h-5.42v7.34ZM300.96,501.71v7.42h5.34c2.59,0,4.02-1.43,4.02-3.71s-1.43-3.71-4.02-3.71h-5.34Z"/>
    <path class="st0" d="M318.36,518.61v-19.02h13.08v2.1h-10.77v6.09h9.3v2.1h-9.3v6.64h11.07v2.09h-13.38Z"/>
    <path class="st0" d="M338.36,513.54c1.08,1.95,2.94,3.25,5.58,3.25,1.29,0,2.34-.28,3.17-.84.81-.55,1.22-1.26,1.22-2.14s-.36-1.58-1.08-2.1c-.71-.52-1.95-1.07-3.67-1.64-.8-.27-1.47-.52-2.02-.74-.55-.22-1.11-.5-1.68-.84-.57-.34-1.04-.69-1.37-1.06-.69-.73-1.16-1.79-1.16-3.04,0-1.62.8-3.01,1.99-3.82,1.19-.81,2.7-1.25,4.23-1.25,1.74,0,3.31.48,4.38,1.23,1.06.76,1.75,1.51,2.27,2.39l-1.81,1.32c-.41-.66-.9-1.22-1.68-1.83-.8-.6-1.92-1-3.17-1-1.07,0-1.96.25-2.7.77s-1.11,1.23-1.11,2.16c0,.73.32,1.33.76,1.74.21.21.53.42.97.63.43.22.84.41,1.23.55.38.15.91.34,1.6.57.83.28,1.51.53,2.06.76.55.22,1.13.5,1.74.85.6.35,1.08.73,1.43,1.11.7.77,1.21,1.88,1.21,3.22,0,1.49-.64,2.7-1.92,3.67-1.27.97-2.9,1.44-4.87,1.44-1.75,0-3.26-.39-4.54-1.16-1.29-.77-2.21-1.75-2.77-2.94l1.74-1.25Z"/>
    <path class="st0" d="M354.3,501.74v-2.16h15.03v2.16h-6.36v16.87h-2.31v-16.87h-6.36Z"/>
    <path class="st0" d="M374.57,499.58h8.12c1.93,0,3.47.5,4.64,1.53,1.15,1.02,1.72,2.39,1.72,4.12,0,2.7-1.57,4.68-4.16,5.36l4.71,8.01h-2.73l-4.47-7.73h-5.52v7.73h-2.31v-19.02ZM376.88,501.69v7.13h5.73c2.62,0,4.03-1.39,4.03-3.59s-1.42-3.54-4.03-3.54h-5.73Z"/>
    <path class="st0" d="M395.25,518.61v-19.02h13.08v2.1h-10.77v6.09h9.3v2.1h-9.3v6.64h11.07v2.09h-13.38Z"/>
    <path class="st0" d="M415.26,513.54c1.08,1.95,2.94,3.25,5.58,3.25,1.29,0,2.34-.28,3.17-.84.81-.55,1.22-1.26,1.22-2.14s-.36-1.58-1.08-2.1c-.71-.52-1.95-1.07-3.67-1.64-.8-.27-1.47-.52-2.02-.74-.55-.22-1.11-.5-1.68-.84-.57-.34-1.04-.69-1.37-1.06-.69-.73-1.16-1.79-1.16-3.04,0-1.62.8-3.01,1.99-3.82s2.7-1.25,4.23-1.25c1.74,0,3.31.48,4.38,1.23,1.06.76,1.75,1.51,2.27,2.39l-1.81,1.32c-.41-.66-.9-1.22-1.68-1.83-.8-.6-1.92-1-3.17-1-1.07,0-1.96.25-2.7.77s-1.11,1.23-1.11,2.16c0,.73.32,1.33.76,1.74.21.21.53.42.97.63.43.22.84.41,1.23.55.38.15.91.34,1.6.57.83.28,1.51.53,2.06.76.55.22,1.13.5,1.74.85.6.35,1.08.73,1.43,1.11.7.77,1.21,1.88,1.21,3.22,0,1.49-.64,2.7-1.92,3.67-1.27.97-2.9,1.44-4.87,1.44-1.75,0-3.26-.39-4.54-1.16-1.29-.77-2.21-1.75-2.77-2.94l1.74-1.25Z"/>
    <path class="st0" d="M442.32,499.58h7.56c1.86,0,3.53.41,5.03,1.23,1.5.83,2.66,1.96,3.5,3.4.84,1.46,1.26,3.08,1.26,4.89s-.42,3.43-1.26,4.88c-.84,1.44-2,2.58-3.5,3.39-1.5.83-3.17,1.23-5.03,1.23h-7.56v-19.02ZM444.63,516.49h5.25c4.34.06,7.44-3.28,7.37-7.38,0-2.12-.69-3.87-2.05-5.28-1.36-1.4-3.14-2.1-5.32-2.12h-5.25s0,14.78,0,14.78Z"/>
    <path class="st0" d="M465.76,518.61v-19.02h13.08v2.1h-10.77v6.09h9.3v2.1h-9.3v6.64h11.07v2.09h-13.38Z"/>
    <path class="st0" d="M507.3,518.61h-13.49v-19.02h2.33v16.92h11.16v2.1Z"/>
    <path class="st0" d="M512.61,518.61v-19.02h2.31v19.02h-2.31Z"/>
    <path class="st0" d="M522.23,518.61v-19.02h2.96l7.07,14.48,7.07-14.48h2.96v19.02h-2.31v-15.28l-6.88,13.88h-1.68l-6.88-13.88v15.28h-2.31Z"/>
    <path class="st0" d="M549.73,518.61h-2.44l7.86-19.02h2.72l7.87,19.02h-2.45l-1.77-4.41h-10.01l-1.78,4.41ZM552.23,512.22h8.56l-4.29-10.23-4.27,10.23Z"/>
    <path class="st0" d="M578.53,499.58h2.42l12.24,15.59v-15.59h2.31v19.02h-2.42l-12.23-15.53v15.53h-2.33v-19.02Z"/>
    <path class="st0" d="M611.34,518.89c-1.37,0-2.66-.24-3.85-.71-1.21-.48-2.24-1.13-3.1-1.99-1.74-1.7-2.8-4.23-2.8-7.09,0-1.91.42-3.6,1.27-5.1.85-1.5,2.02-2.65,3.5-3.46,1.47-.81,3.14-1.22,4.97-1.22s3.5.41,4.99,1.22c1.47.81,2.63,1.96,3.49,3.46.85,1.5,1.28,3.19,1.28,5.1,0,2.86-1.07,5.39-2.79,7.09-.87.85-1.91,1.51-3.1,1.99-1.2.48-2.49.71-3.87.71ZM604.01,509.1c0,2.27.69,4.1,2.06,5.52,1.36,1.42,3.12,2.12,5.27,2.12s3.91-.7,5.28-2.12c1.36-1.42,2.04-3.25,2.04-5.52s-.69-4.1-2.04-5.52c-1.37-1.4-3.14-2.1-5.28-2.1s-3.91.7-5.27,2.1c-1.37,1.42-2.06,3.25-2.06,5.52Z"/>
    <path class="st0" d="M627.18,499.58h8.12c1.93,0,3.47.5,4.64,1.53,1.15,1.02,1.72,2.39,1.72,4.12,0,2.7-1.57,4.68-4.16,5.36l4.71,8.01h-2.73l-4.47-7.73h-5.52v7.73h-2.31v-19.02ZM629.49,501.69v7.13h5.73c2.62,0,4.03-1.39,4.03-3.59s-1.42-3.54-4.03-3.54h-5.73Z"/>
    <path class="st0" d="M645.46,501.74v-2.16h15.03v2.16h-6.36v16.87h-2.31v-16.87h-6.36Z"/>
    <path class="st0" d="M665.73,518.61v-19.02h13.08v2.1h-10.77v6.09h9.3v2.1h-9.3v6.64h11.07v2.09h-13.38Z"/>
  </g>
  <g>
    <path class="st0" d="M56.59,450.39c0-18.8,12.73-27.19,25.89-27.19,6.87,0,11.5,2.39,15.69,2.39v16.27c-4.48-9.33-9.76-12.8-16.27-12.8s-12.87,3.33-12.87,19.16,6.51,21.26,13.96,21.26c5.57,0,10.85-2.96,15.19-9.69v13.09c-4.7,0-9.91,2.46-17.35,2.46-12.51,0-24.22-6.94-24.22-24.95Z"/>
    <path class="st0" d="M135.56,474.26c2.02-1.45,3.04-2.89,3.04-5.42,0-5.28-4.05-8.6-12.15-8.6-4.63,0-8.46,1.01-11.21,2.39-.51,1.66-.8,3.04-.8,4.05,0,2.17,1.01,5.93,2.75,7.59h-15.33c1.45-1.3,3.69-5.64,6.07-10.99,5.79-12.87,12.87-31.6,12.87-34.93,0-1.37-1.01-3.33-1.74-4.05h15.11c1.81,7.95,8.17,25.45,14.25,39.05,2.1,4.7,4.05,8.75,5.79,10.92h-18.66ZM129.84,454.08c1.01,0,2.02.07,3.04.22-1.95-5.13-5.28-13.45-7.38-19.09-1.81,6.15-5.71,14.9-8.39,21.91,3.62-1.95,8.32-3.04,12.73-3.04Z"/>
    <path class="st0" d="M157.32,473.46v-16.05c4.41,8.97,11.64,12.58,17.43,12.58,4.99,0,7.09-2.39,7.09-5.79,0-10.92-24.37-11.06-24.37-26.75,0-8.53,7.3-14.25,17.28-14.25,5.93,0,9.83,2.1,14.17,2.1v15.26c-3.69-8.03-9.76-12-15.19-12-4.19,0-6.51,2.1-6.51,5.42,0,10.34,24.37,9.98,24.37,26.18,0,8.89-7.23,15.19-17.93,15.19-5.86,0-11.35-1.88-16.34-1.88Z"/>
    <path class="st0" d="M228.47,474.26c2.02-1.45,3.04-2.89,3.04-5.42,0-5.28-4.05-8.6-12.15-8.6-4.63,0-8.46,1.01-11.21,2.39-.51,1.66-.8,3.04-.8,4.05,0,2.17,1.01,5.93,2.75,7.59h-15.33c1.45-1.3,3.69-5.64,6.07-10.99,5.79-12.87,12.87-31.6,12.87-34.93,0-1.37-1.01-3.33-1.74-4.05h15.11c1.81,7.95,8.17,25.45,14.25,39.05,2.1,4.7,4.05,8.75,5.79,10.92h-18.66ZM222.76,454.08c1.01,0,2.02.07,3.04.22-1.95-5.13-5.28-13.45-7.38-19.09-1.81,6.15-5.71,14.9-8.39,21.91,3.62-1.95,8.32-3.04,12.73-3.04Z"/>
    <path class="st0" d="M312.57,474.26c2.89-2.1,3.98-5.35,3.98-8.89,0-5.42-2.46-22.56-3.18-30.95-2.24,9.91-11.86,30.44-13.3,40.06h-8.89c-1.01-5.71-11.71-31.02-14.39-40.06-.51,8.75-2.96,24.37-2.96,30.23,0,4.63,1.52,7.52,4.99,9.62h-15.26c1.95-1.74,3.4-5.35,4.05-9.98.51-4.19,3.18-27.84,3.18-32.76,0-2.53-.65-5.28-2.31-7.23h19.67c-.65,1.08-.94,2.31-.94,3.47,0,6.44,8.1,24.3,10.7,33.26,2.75-9.76,10.34-25.09,10.34-32.61,0-1.3-.14-2.82-.87-4.12h19.24c-1.66,1.95-2.31,4.48-2.31,7.52,0,5.28,2.24,24.3,3.25,32.47.51,4.41,2.02,8.24,3.98,9.98h-18.95Z"/>
    <path class="st0" d="M367.02,474.26c2.02-1.45,3.04-2.89,3.04-5.42,0-5.28-4.05-8.6-12.15-8.6-4.63,0-8.46,1.01-11.21,2.39-.51,1.66-.8,3.04-.8,4.05,0,2.17,1.01,5.93,2.75,7.59h-15.33c1.45-1.3,3.69-5.64,6.07-10.99,5.79-12.87,12.87-31.6,12.87-34.93,0-1.37-1.01-3.33-1.74-4.05h15.11c1.81,7.95,8.17,25.45,14.25,39.05,2.1,4.7,4.05,8.75,5.79,10.92h-18.66ZM361.3,454.08c1.01,0,2.02.07,3.04.22-1.95-5.13-5.28-13.45-7.38-19.09-1.81,6.15-5.71,14.9-8.39,21.91,3.62-1.95,8.32-3.04,12.73-3.04Z"/>
    <path class="st0" d="M415.17,474.26c1.59-1.23,2.24-3.25,2.17-5.79-.07-6.72-5.42-13.96-13.16-13.96-.51,0-1.01,0-1.52.07v10.05c0,3.76.87,7.01,4.34,9.62h-19.67c3.47-2.6,4.34-5.86,4.34-9.62v-30.73c0-3.76-.87-7.01-4.34-9.62h25.45c4.12,0,15.19,1.01,15.19,12.08,0,7.38-4.77,12.37-10.7,14.39,6.22,2.31,9.04,8.46,10.99,15.62.65,2.53,2.1,5.86,5.13,7.88h-18.22ZM409.03,429.64h-6.36v19.24h5.57c4.77,0,8.75-3.76,8.75-10.49,0-6.07-3.25-8.75-7.95-8.75Z"/>
    <path class="st0" d="M435.78,473.46v-16.05c4.41,8.97,11.64,12.58,17.43,12.58,4.99,0,7.09-2.39,7.09-5.79,0-10.92-24.37-11.06-24.37-26.75,0-8.53,7.3-14.25,17.28-14.25,5.93,0,9.83,2.1,14.17,2.1v15.26c-3.69-8.03-9.76-12-15.19-12-4.19,0-6.51,2.1-6.51,5.42,0,10.34,24.37,9.98,24.37,26.18,0,8.89-7.23,15.19-17.93,15.19-5.86,0-11.35-1.88-16.34-1.88Z"/>
    <path class="st0" d="M522.55,464.64c0,3.76.79,7.01,4.34,9.62h-19.96c3.47-2.6,4.34-5.86,4.34-9.62v-12.87h-20.17v12.87c0,3.76.79,7.01,4.34,9.62h-19.96c3.47-2.6,4.34-5.86,4.34-9.62v-30.73c0-3.76-.87-7.01-4.34-9.62h19.96c-3.54,2.6-4.34,5.86-4.34,9.62v11.64h20.17v-11.64c0-3.76-.87-7.01-4.34-9.62h19.96c-3.54,2.6-4.34,5.86-4.34,9.62v30.73Z"/>
    <path class="st0" d="M562.25,474.26c2.02-1.45,3.04-2.89,3.04-5.42,0-5.28-4.05-8.6-12.15-8.6-4.63,0-8.46,1.01-11.21,2.39-.51,1.66-.8,3.04-.8,4.05,0,2.17,1.01,5.93,2.75,7.59h-15.33c1.45-1.3,3.69-5.64,6.07-10.99,5.79-12.87,12.87-31.6,12.87-34.93,0-1.37-1.01-3.33-1.74-4.05h15.11c1.81,7.95,8.17,25.45,14.25,39.05,2.1,4.7,4.05,8.75,5.79,10.92h-18.66ZM556.54,454.08c1.01,0,2.02.07,3.04.22-1.95-5.13-5.28-13.45-7.38-19.09-1.81,6.15-5.71,14.9-8.39,21.91,3.62-1.95,8.32-3.04,12.73-3.04Z"/>
    <path class="st0" d="M604.12,468.33c5.86,0,10.56-1.16,14.9-9.33l-2.6,16.27c-3.62-.94-8.17-1.01-12.51-1.01h-21.33c3.47-2.6,4.34-5.86,4.34-9.62v-30.73c0-3.76-.87-7.01-4.34-9.62h19.96c-3.54,2.6-4.34,5.86-4.34,9.62v34.42h5.93Z"/>
    <path class="st0" d="M644.1,468.33c5.86,0,10.56-1.16,14.9-9.33l-2.6,16.27c-3.62-.94-8.17-1.01-12.51-1.01h-21.33c3.47-2.6,4.34-5.86,4.34-9.62v-30.73c0-3.76-.87-7.01-4.34-9.62h19.96c-3.54,2.6-4.34,5.86-4.34,9.62v34.42h5.93Z"/>
    <path class="st0" d="M663.41,473.46v-16.05c4.41,8.97,11.64,12.58,17.43,12.58,4.99,0,7.09-2.39,7.09-5.79,0-10.92-24.37-11.06-24.37-26.75,0-8.53,7.3-14.25,17.28-14.25,5.93,0,9.83,2.1,14.17,2.1v15.26c-3.69-8.03-9.76-12-15.18-12-4.19,0-6.51,2.1-6.51,5.42,0,10.34,24.37,9.98,24.37,26.18,0,8.89-7.23,15.19-17.93,15.19-5.86,0-11.35-1.88-16.34-1.88Z"/>
  </g>
  <g>
    <path class="st0" d="M344.64,277.89c-8.91-3.89-15.32-6.74-19.26-8.56-3.94-1.81-5.64-8.86-5.12-21.14l3.5-76.26,52.91,142.02.39-1.02.39,1.02,52.91-142.02,3.5,76.26c.52,12.28-1.19,19.32-5.12,21.14-3.93,1.82-10.35,4.67-19.26,8.56l67.83.39c.69,0-2.92-1.77-10.83-5.31-7.91-3.55-12.3-11.93-13.17-25.16l-6.35-95.98c-.52-9.08.93-14.48,4.35-16.21,3.41-1.73,8.75-2.9,16.02-3.5h-46.56l-43.71,117.34-43.71-117.34h-46.56c7.26.61,12.6,1.77,16.02,3.5,3.41,1.73,4.87,7.13,4.35,16.21l-6.35,95.98c-.87,13.23-5.25,21.62-13.17,25.16-7.91,3.55-11.52,5.31-10.83,5.31l67.83-.39Z"/>
    <g>
      <path class="st0" d="M355.02,31.55c-25.73,6.8-32.65,21.44-34.33,30.94l23.53-7.31c8.11-11.11,10.79-23.62,10.79-23.62Z"/>
      <g>
        <path class="st0" d="M218.51,145.64c-1.48-24.75-.45-40.48-.4-41.14l.39-5.74c-10.27,15.45-10.59,40.23-10.59,40.23l-23.97-21.68c21.79,37.76,24.36,77.1,24.36,77.1-13.93-26.07-35.07-33.87-35.07-33.87,6.79,25.58,41.51,65.38,41.51,65.38-79.44-67.4-166.74-39.39-166.74-39.39,20.75,5.92,41.8,9.43,41.8,9.43-17.24,7.43-20.01,28.32-20.01,28.32,0,0,21.86-15.41,33.18-21.24s43.34,1.69,43.34,1.69c-27.71,17.39-23.67,48.61-23.67,48.61,0,0,27.44-45.48,48.65-37.31,35.46,18.32,66.42,56.41,87.89,88.55-11.27-21.98-20.39-46.27-27.21-72.57-7.15-27.52-11.68-56.58-13.46-86.4Z"/>
        <path class="st0" d="M148.51,110.88c5.65,40.38,38.42,41.39,38.42,41.39-7.35-32.73-38.42-41.39-38.42-41.39Z"/>
        <path class="st0" d="M112.31,168.61c-.77-26.49-31.86-38.85-31.86-38.85,3.55,39.07,31.86,38.85,31.86,38.85Z"/>
        <path class="st0" d="M69.91,140.93c-.77-26.49-31.86-38.85-31.86-38.85,3.55,39.07,31.86,38.85,31.86,38.85Z"/>
        <path class="st0" d="M93.33,111.16c3.4-26.29-25.36-43.37-25.36-43.37-2.64,39.14,25.36,43.37,25.36,43.37Z"/>
        <path class="st0" d="M304.07,22.49c-23.08,21.02-23.11,40.06-19.9,51.36l17.37-5.4c9.44-21,2.53-45.97,2.53-45.97Z"/>
        <path class="st0" d="M178.63,70.86c22.39-25.18,4.39-63.73,4.39-63.73-30.78,39.24-4.39,63.73-4.39,63.73Z"/>
        <path class="st0" d="M129.44,149.49c12.03,39.19,40.94,32.87,40.94,32.87-6.48-26.92-40.94-32.87-40.94-32.87Z"/>
        <path class="st0" d="M136.9,135.88c5.54-33.24-30.22-56.28-30.22-56.28-5.16,49.61,30.22,56.28,30.22,56.28Z"/>
        <path class="st0" d="M230.63,7.11c-33.57,36.88-9.05,63.23-9.05,63.23,24.17-23.48,9.05-63.23,9.05-63.23Z"/>
        <path class="st0" d="M258.39,64.36c-10.54,8.17-16.85,16.31-20.45,23.86l21.47-6.67c.39-9.88-1.02-17.19-1.02-17.19Z"/>
        <path class="st0" d="M157.35,91.26c.51-33.69-38.28-51.13-38.28-51.13,2.3,49.82,38.28,51.13,38.28,51.13Z"/>
        <path class="st0" d="M56.73,176.76c-5.63-33.72-42.28-29.56-42.28-29.56,6.13,43.41,42.28,29.56,42.28,29.56Z"/>
        <path class="st0" d="M67.81,216.49c-43.84-13.71-48.39,29.04-48.39,29.04,31.2,7.3,48.39-29.04,48.39-29.04Z"/>
        <path class="st0" d="M115.51,214.64s-29.28.74-43.5,28.13c0,0,35.51,2.65,43.5-28.13Z"/>
        <path class="st0" d="M78.25,286.12c35.47,4.88,43.79-25.17,43.79-25.17-31.26-3.34-43.79,25.17-43.79,25.17Z"/>
        <path class="st0" d="M87.5,253.84c-29.81-9.98-48.18,15.17-48.18,15.17,33.59,12.39,48.18-15.17,48.18-15.17Z"/>
        <path class="st0" d="M50.42,198.51c-26.49-16.93-50.42,2.98-50.42,2.98,29.56,20.2,50.42-2.98,50.42-2.98Z"/>
        <path class="st0" d="M199.79,117.28c16.84-26.55-3.16-50.41-3.16-50.41-20.09,29.63,3.16,50.41,3.16,50.41Z"/>
        <path class="st0" d="M286.21,0c-34.32,10.19-29.51,41-29.51,41C286.55,31.14,286.21,0,286.21,0Z"/>
        <path class="st0" d="M142.29,265.36s36.16-8.57,23.92-43.58c0,0-27.33,19.27-23.92,43.58Z"/>
      </g>
    </g>
    <g>
      <path class="st0" d="M401.97,31.55c25.73,6.8,32.65,21.44,34.33,30.94l-23.53-7.31c-8.11-11.11-10.79-23.62-10.79-23.62Z"/>
      <g>
        <path class="st0" d="M538.49,145.64c1.48-24.75.45-40.48.4-41.14l-.39-5.74c10.27,15.45,10.59,40.23,10.59,40.23l23.97-21.68c-21.79,37.76-24.36,77.1-24.36,77.1,13.93-26.07,35.07-33.87,35.07-33.87-6.79,25.58-41.51,65.38-41.51,65.38,79.44-67.4,166.74-39.39,166.74-39.39-20.75,5.92-41.8,9.43-41.8,9.43,17.24,7.43,20.01,28.32,20.01,28.32,0,0-21.86-15.41-33.18-21.24-11.31-5.83-43.34,1.69-43.34,1.69,27.71,17.39,23.67,48.61,23.67,48.61,0,0-27.44-45.48-48.65-37.31-35.46,18.32-66.42,56.41-87.89,88.55,11.27-21.98,20.39-46.27,27.21-72.57,7.15-27.52,11.68-56.58,13.46-86.4Z"/>
        <path class="st0" d="M608.48,110.88c-5.65,40.38-38.42,41.39-38.42,41.39,7.35-32.73,38.42-41.39,38.42-41.39Z"/>
        <path class="st0" d="M644.69,168.61c.77-26.49,31.86-38.85,31.86-38.85-3.55,39.07-31.86,38.85-31.86,38.85Z"/>
        <path class="st0" d="M687.08,140.93c.77-26.49,31.86-38.85,31.86-38.85-3.55,39.07-31.86,38.85-31.86,38.85Z"/>
        <path class="st0" d="M663.66,111.16c-3.4-26.29,25.36-43.37,25.36-43.37,2.64,39.14-25.36,43.37-25.36,43.37Z"/>
        <path class="st0" d="M452.92,22.49c23.08,21.02,23.11,40.06,19.9,51.36l-17.37-5.4c-9.44-21-2.53-45.97-2.53-45.97Z"/>
        <path class="st0" d="M578.37,70.86c-22.39-25.18-4.39-63.73-4.39-63.73,30.78,39.24,4.39,63.73,4.39,63.73Z"/>
        <path class="st0" d="M627.55,149.49c-12.03,39.19-40.94,32.87-40.94,32.87,6.48-26.92,40.94-32.87,40.94-32.87Z"/>
        <path class="st0" d="M620.09,135.88c-5.54-33.24,30.22-56.28,30.22-56.28,5.16,49.61-30.22,56.28-30.22,56.28Z"/>
        <path class="st0" d="M526.37,7.11c33.57,36.88,9.05,63.23,9.05,63.23-24.17-23.48-9.05-63.23-9.05-63.23Z"/>
        <path class="st0" d="M498.61,64.36c10.54,8.17,16.85,16.31,20.45,23.86l-21.47-6.67c-.39-9.88,1.02-17.19,1.02-17.19Z"/>
        <path class="st0" d="M599.65,91.26c-.51-33.69,38.28-51.13,38.28-51.13-2.3,49.82-38.28,51.13-38.28,51.13Z"/>
        <path class="st0" d="M700.26,176.76c5.63-33.72,42.28-29.56,42.28-29.56-6.13,43.41-42.28,29.56-42.28,29.56Z"/>
        <path class="st0" d="M689.19,216.49c43.84-13.71,48.39,29.04,48.39,29.04-31.2,7.3-48.39-29.04-48.39-29.04Z"/>
        <path class="st0" d="M641.49,214.64s29.28.74,43.5,28.13c0,0-35.51,2.65-43.5-28.13Z"/>
        <path class="st0" d="M678.74,286.12c-35.47,4.88-43.79-25.17-43.79-25.17,31.26-3.34,43.79,25.17,43.79,25.17Z"/>
        <path class="st0" d="M669.5,253.84c29.81-9.98,48.18,15.17,48.18,15.17-33.59,12.39-48.18-15.17-48.18-15.17Z"/>
        <path class="st0" d="M706.57,198.51c26.49-16.93,50.42,2.98,50.42,2.98-29.56,20.2-50.42-2.98-50.42-2.98Z"/>
        <path class="st0" d="M557.2,117.28c-16.84-26.55,3.16-50.41,3.16-50.41,20.09,29.63-3.16,50.41-3.16,50.41Z"/>
        <path class="st0" d="M470.79,0c34.32,10.19,29.51,41,29.51,41-29.85-9.86-29.51-41-29.51-41Z"/>
        <path class="st0" d="M614.71,265.36s-36.16-8.57-23.92-43.58c0,0,27.33,19.27,23.92,43.58Z"/>
      </g>
    </g>
    <path class="st0" d="M464.35,340.08c2.75-3.69,5.44-7.45,8.02-11.34,18.73-28.09,33.15-61.31,42.86-98.72,7.02-27.01,11.46-55.57,13.22-84.87,1.45-24.25.45-39.48.41-40.11l-.33-4.87-150.04-46.64-150.04,46.64-.33,4.87c-.04.64-1.05,15.86.41,40.11,1.76,29.3,6.2,57.85,13.22,84.87,9.72,37.41,24.14,70.63,42.86,98.72,2.59,3.88,5.27,7.65,8.02,11.34-64.14,11.76-120.11,36.58-160.95,69.9,46.17-27.93,105.32-48.01,171.5-56.68,20.11,23.44,43.96,42.3,71.19,56.23l4.11,2.08,4.11-2.08c27.24-13.93,51.09-32.79,71.19-56.23,66.18,8.68,125.33,28.76,171.5,56.68-40.84-33.31-96.8-58.13-160.95-69.9ZM448.57,337.48c-3.83,4.8-7.81,9.42-11.95,13.84-16.82,17.96-36.2,32.76-58.12,44.3-21.92-11.54-41.3-26.34-58.12-44.3-4.14-4.42-8.13-9.03-11.95-13.84-23.71-29.76-41.41-66.85-52.89-111.03-13.91-53.58-13.85-100.76-13.41-115.6l136.37-42.39,136.37,42.39c.45,14.84.51,62.02-13.41,115.6-11.47,44.19-29.18,81.27-52.89,111.03Z"/>
  </g>
</svg>